<?xml version="1.0" encoding="UTF-8"?>
<svg id="Layer_1" xmlns="http://www.w3.org/2000/svg" version="1.1" viewBox="0 0 800 800">
  <!-- Generator: Adobe Illustrator 29.8.4, SVG Export Plug-In . SVG Version: 2.1.1 Build 6)  -->
  <path d="M345.14,456.47c5.47-8.5,8.39-17.22,19.17-20.61,14.27-4.48,67.69-4.54,81.19,1.34,7.07,3.08,14.53,16.43,18.82,23.31,3.53,5.67,6.88,11.55,10.28,17.36.5.7.98,1.24,1.5,2.09,21.66,35.19,32.61,36.16,45.69,41.28,15.67,3.89,29.82,13.82,38.46,28.95,16.75,29.36,6.53,66.74-22.82,83.49-29.35,16.75-66.74,6.53-83.49-22.82-8.38-14.68-10.01-31.38-5.88-46.49-.01-.13-.1-.21-.09-.35.75-16.8,9.08-23.08-14.15-62.6-.73-1.24-1.18-2.28-1.66-3.34-3.32-5.5-6.63-10.99-9.86-16.42-3.78-6.35-10.77-24.08-18.66-24.52-5.44-.3-8.25,4.57-9.63,6.73-22.41,35.12-39.92,68.13-60.64,103.69-2.81,4.83-18.81,34.65-20.08,35.94-.49.5-7.41,15.4-12.42,15.91-4.83.49-25.54-41.15-25.44-42.69,7.89-16.6,21.16-36.53,30.31-52.51,12.89-22.5,25.52-46.21,39.38-67.75Z"/>
  <path d="M449.22,413.65c-4.94-4.89-28-46.83-31.23-54.82-5.23-12.9-3.07-20.93,2.66-32.84,3.39-7.03,7.25-14.34,11.27-21.73.55-1.4,1.33-2.97,2.37-4.72,23.41-39.41,15.11-45.73,14.43-62.53,0-.21.12-.33.14-.52-7.13-26.27,3.79-55,28.53-69.11,29.36-16.75,66.74-6.54,83.5,22.82,16.75,29.36,6.53,66.74-22.82,83.49-4.2,2.4-8.58,4.09-13.02,5.41,0,0,0,0-.01.01-12.99,5.93-21.75,3.64-39.14,26.46h-.01s-2.85,3.44-7.06,8.53c-3.22,3.9-7.23,8.77-11.42,13.88-11.18,13.64-23.48,28.77-24.48,30.63-2.2,4.08-4.57,10.76-.03,15.8,1.25,1.38,3.12,2.33,5.17,3.03.19.07.39.12.59.18,2.26.69,4.64,1.09,6.68,1.28.06.03.18.16.23.17h2.06c1.49.07,2.5.06,2.5.06l.06-.05,183.08.19c.31,1.76.33,2.95-.31,4.47-2.78,6.59-12.02,21.61-16.16,28.4-2.05,3.36-5.49,10.35-9.82,10.41l-149.45-.09c-8.94-.3-15.61-6.14-18.3-8.8Z"/>
  <path d="M192.51,346.29c24.51-13.99,54.45-8.96,73.48,10.09.23.09.45.06.67.22,13.65,9.83,14.35,20.23,60.14,22.42,2,.1,3.71.31,5.17.62,15.49.35,3.77.48,18.85-.14,9.19-.38,14.27-6.89,9.8-16.06l-21.33-35.82c-22.95-37.17-39.8-41.7-54.51-48.29-15.27-4.06-28.97-13.96-37.42-28.77-16.75-29.36-6.54-66.74,22.82-83.49,29.35-16.75,66.74-6.54,83.49,22.82,8.55,14.99,10,32.04,5.53,47.4,0,.1.07.16.06.26-1.15,14.45-7.28,22.6,5.02,50.38,8.67,14.34,16.82,28.6,22.73,41.66,5.01,11.09,5.17,19.4.37,30.6-4.42,10.31-21.04,39.19-27.8,48.07-4.26,5.6-15.44,13.9-23.29,14.03l-10.74-.04c-44.32.95-46.44,10.82-59.38,20.04-3.84,3.88-8.04,7.48-13.01,10.32-29.36,16.75-66.74,6.54-83.5-22.82-16.75-29.36-6.53-66.74,22.82-83.49Z"/>
</svg>