<?xml version="1.0" encoding="UTF-8"?>
<svg id="Layer_1" xmlns="http://www.w3.org/2000/svg" version="1.1" viewBox="0 0 800 800">
  <!-- Generator: Adobe Illustrator 29.8.4, SVG Export Plug-In . SVG Version: 2.1.1 Build 6)  -->
  <g>
    <polyline points="349.75 323.97 365.86 386.3 369.9 386.3 375.29 386.3 379.44 386.3 395.42 324.47 411.41 386.3 415.56 386.3 420.94 386.3 424.98 386.3 445.29 307.77 434.74 307.77 418.25 375.27 401.76 307.77 399.74 307.77 391.1 307.77 389.08 307.77 372.59 375.27 356.1 307.77 345.56 307.77 349.75 323.97"/>
    <path d="M462.45,335.14c2.77-2.84,6.77-4.26,12-4.26,3.59,0,6.51.79,8.75,2.36,2.24,1.57,3.89,3.8,4.94,6.67.8,2.19,1.29,4.74,1.48,7.65-3.6-.19-7.21-.26-10.84-.19-3.93.08-7.68.49-11.27,1.23-3.59.75-6.79,1.91-9.59,3.48-2.8,1.57-5.03,3.68-6.67,6.34-1.65,2.66-2.47,6-2.47,10.04s.97,7.74,2.92,10.66c1.94,2.92,4.58,5.14,7.91,6.67,3.33,1.53,7.05,2.3,11.16,2.3,4.64,0,8.45-.88,11.44-2.64,2.99-1.76,5.35-4.22,7.07-7.4.16-.3.3-.63.45-.94v9.18h10.21v-35.9c0-8.82-2.13-15.82-6.39-20.98-4.26-5.16-10.62-7.74-19.07-7.74-5.76,0-10.66,1.14-14.7,3.42-4.04,2.28-7.09,5.24-9.14,8.86-2.06,3.63-3.08,7.5-3.08,11.61h10.77c0-4.11,1.38-7.59,4.15-10.43ZM487.75,370.59c-1.31,2.69-3.2,4.82-5.66,6.39-2.47,1.57-5.46,2.36-8.97,2.36-4.49,0-7.89-.97-10.21-2.92-2.32-1.94-3.48-4.78-3.48-8.53,0-4.49,2.77-7.98,8.3-10.49,5-2.26,12.35-3,21.99-2.24v6.34c0,3.36-.65,6.39-1.96,9.09Z"/>
    <path d="M546.36,376.82c-2.69,1.76-6.32,2.64-10.88,2.64s-8.45-1.12-11.67-3.36c-3.22-2.24-5.01-5.46-5.38-9.65h-9.87c.15,4.11,1.38,7.8,3.7,11.05,2.32,3.25,5.44,5.83,9.37,7.74,3.93,1.91,8.36,2.86,13.29,2.86,5.31,0,9.87-.79,13.69-2.36,3.81-1.57,6.75-3.81,8.81-6.73,2.06-2.92,3.09-6.36,3.09-10.32,0-3.51-.75-6.34-2.24-8.47-1.5-2.13-3.46-3.79-5.89-4.99-2.43-1.2-5.1-2.13-8.02-2.8-2.92-.67-5.83-1.23-8.75-1.68-2.92-.45-5.61-.99-8.08-1.63-2.47-.63-4.45-1.57-5.95-2.8-1.5-1.23-2.24-3.01-2.24-5.33,0-3.07,1.25-5.61,3.76-7.63,2.5-2.02,6.19-3.03,11.05-3.03,4.34,0,8.02,1.09,11.05,3.25,3.03,2.17,4.69,5.39,4.99,9.65h9.31c0-4.26-1.12-8-3.37-11.22-2.24-3.21-5.25-5.74-9.03-7.57-3.78-1.83-7.95-2.75-12.51-2.75-5.09,0-9.54.9-13.35,2.69-3.81,1.8-6.75,4.17-8.8,7.12-2.06,2.96-3.09,6.11-3.09,9.48,0,3.59.75,6.51,2.24,8.75,1.49,2.24,3.46,4,5.89,5.27,2.43,1.27,5.12,2.24,8.08,2.92s5.87,1.23,8.75,1.68c2.88.45,5.55.97,8.02,1.57,2.47.6,4.43,1.48,5.89,2.64,1.46,1.16,2.19,2.79,2.19,4.88,0,3.66-1.35,6.38-4.04,8.13Z"/>
    <path d="M575.64,370.37c0,4.71,1.4,8.54,4.21,11.5,2.8,2.95,7.05,4.43,12.73,4.43h7.4v-8.64h-7.29c-2.24,0-3.97-.58-5.16-1.74-1.2-1.16-1.79-3.01-1.79-5.55v-38.25h12.45v-8.64h-12.45v-15.7h-10.1v15.7h-10.55v8.64h10.55v38.25Z"/>
    <path d="M658.2,377.77c2.54-3.22,4.34-6.99,5.38-11.33h-10.77c-1.12,3.44-3.1,6.36-5.95,8.75-2.84,2.39-6.81,3.59-11.89,3.59-4.64,0-8.56-1.03-11.78-3.09-3.22-2.06-5.66-4.88-7.35-8.47-1.26-2.68-2.04-5.64-2.36-8.86h50.21c.45-5.83.04-11.01-1.23-15.54-1.27-4.52-3.25-8.36-5.95-11.5-2.69-3.14-5.89-5.53-9.59-7.18-3.7-1.64-7.68-2.47-11.95-2.47-6.51,0-12.15,1.42-16.94,4.26-4.79,2.84-8.51,6.77-11.16,11.78-2.66,5.01-3.98,10.77-3.98,17.28s1.33,12.15,3.98,17.16c2.65,5.01,6.38,8.92,11.16,11.72,4.78,2.8,10.43,4.21,16.94,4.21,5.08,0,9.59-.92,13.52-2.75,3.93-1.83,7.16-4.36,9.7-7.57ZM623.2,334.08c3.22-2.06,7.14-3.09,11.78-3.09,4.11,0,7.59.97,10.43,2.92,2.84,1.95,5.01,4.6,6.51,7.96,1.03,2.32,1.66,4.88,1.95,7.63h-40.07c.41-2.46,1.07-4.78,2.05-6.9,1.68-3.63,4.13-6.47,7.35-8.53Z"/>
    <path d="M389.59,407.54c-5.12-1.61-11.24-2.41-18.34-2.41h-25.46v78.53h10.32v-28.38h15.14c7.1,0,13.22-.8,18.34-2.41,5.12-1.61,9.05-4.28,11.78-8.02,2.73-3.74,4.1-8.64,4.1-14.7s-1.37-11.03-4.1-14.7c-2.73-3.66-6.66-6.3-11.78-7.91ZM391.95,439.96c-1.83,2.36-4.49,3.98-7.96,4.88-3.48.9-7.72,1.35-12.73,1.35h-15.14v-31.97h15.14c5.01,0,9.26.45,12.73,1.35,3.48.9,6.13,2.51,7.96,4.82,1.83,2.32,2.75,5.57,2.75,9.76s-.92,7.46-2.75,9.82Z"/>
    <path d="M471.15,469.52c2.65-5.01,3.98-10.73,3.98-17.16s-1.33-12.27-3.98-17.28c-2.66-5.01-6.38-8.94-11.16-11.78-4.79-2.84-10.43-4.26-16.94-4.26s-12.15,1.42-16.94,4.26c-4.79,2.84-8.51,6.77-11.16,11.78-2.66,5.01-3.98,10.77-3.98,17.28s1.33,12.15,3.98,17.16c2.65,5.01,6.38,8.92,11.16,11.72,4.78,2.8,10.43,4.21,16.94,4.21s12.15-1.4,16.94-4.21c4.78-2.8,8.51-6.71,11.16-11.72ZM461.89,464.97c-1.8,3.55-4.3,6.3-7.52,8.25-3.22,1.94-6.99,2.92-11.33,2.92s-8.13-.97-11.39-2.92c-3.25-1.94-5.78-4.69-7.57-8.25-1.8-3.55-2.69-7.76-2.69-12.62s.9-9.2,2.69-12.79c1.8-3.59,4.32-6.36,7.57-8.3,3.25-1.94,7.05-2.92,11.39-2.92s8.11.97,11.33,2.92c3.22,1.95,5.72,4.71,7.52,8.3,1.8,3.59,2.69,7.85,2.69,12.79s-.9,9.07-2.69,12.62Z"/>
    <polygon points="542.66 483.65 558.93 420.83 547.93 420.83 536.53 471.92 524.49 420.83 522.47 420.83 515.07 420.83 513.16 420.83 501.11 471.96 489.6 420.83 478.72 420.83 494.99 483.65 498.35 483.65 503.74 483.65 507.66 483.65 518.77 436.54 529.87 483.65 533.91 483.65 539.3 483.65 542.66 483.65"/>
    <path d="M616.14,428.68c-2.69-3.14-5.89-5.53-9.59-7.18-3.7-1.64-7.68-2.47-11.95-2.47-6.51,0-12.15,1.42-16.94,4.26-4.79,2.84-8.51,6.77-11.16,11.78-2.66,5.01-3.98,10.77-3.98,17.28s1.33,12.15,3.98,17.16c2.65,5.01,6.38,8.92,11.16,11.72,4.78,2.8,10.43,4.21,16.94,4.21,5.08,0,9.59-.92,13.52-2.75,3.93-1.83,7.16-4.36,9.7-7.57,2.54-3.22,4.34-6.99,5.38-11.33h-10.77c-1.12,3.44-3.1,6.36-5.95,8.75-2.84,2.39-6.81,3.59-11.89,3.59-4.64,0-8.56-1.03-11.78-3.09-3.22-2.06-5.66-4.88-7.35-8.47-1.26-2.68-2.04-5.64-2.36-8.86h50.21c.45-5.83.04-11.01-1.23-15.54-1.27-4.52-3.25-8.36-5.95-11.5ZM582.82,431.43c3.22-2.06,7.14-3.09,11.78-3.09,4.11,0,7.59.97,10.43,2.92,2.84,1.95,5.01,4.6,6.51,7.96,1.03,2.32,1.66,4.88,1.95,7.63h-40.07c.41-2.46,1.07-4.78,2.05-6.9,1.68-3.63,4.13-6.47,7.35-8.53Z"/>
    <path d="M652.04,421.39c-3.07,1.57-5.4,3.53-7.01,5.89-1.03,1.5-1.81,3.05-2.41,4.62v-11.08h-10.1v62.82h10.1v-34.1c0-5.01.88-8.97,2.64-11.89,1.76-2.92,4.24-5.01,7.46-6.28,3.22-1.27,7.03-1.91,11.44-1.91v-10.43c-5.01,0-9.05.78-12.12,2.35Z"/>
    <polygon points="405.69 511.57 405.69 502.48 380.78 502.48 370.46 502.48 345.56 502.48 345.56 511.57 370.46 511.57 370.46 581.01 380.78 581.01 380.78 511.57 405.69 511.57"/>
    <path d="M453.47,526.04c-2.69-3.14-5.89-5.53-9.59-7.18-3.7-1.64-7.68-2.47-11.95-2.47-6.51,0-12.15,1.42-16.94,4.26-4.79,2.84-8.51,6.77-11.16,11.78-2.66,5.01-3.98,10.77-3.98,17.28s1.33,12.15,3.98,17.16c2.65,5.01,6.38,8.92,11.16,11.72,4.78,2.8,10.43,4.21,16.94,4.21,5.08,0,9.59-.92,13.52-2.75,3.93-1.83,7.16-4.36,9.7-7.57,2.54-3.22,4.34-6.99,5.38-11.33h-10.77c-1.12,3.44-3.1,6.36-5.95,8.75-2.84,2.39-6.81,3.59-11.89,3.59-4.64,0-8.56-1.03-11.78-3.09-3.22-2.06-5.66-4.88-7.35-8.47-1.26-2.68-2.04-5.64-2.36-8.86h50.21c.45-5.83.04-11.01-1.23-15.54-1.27-4.52-3.25-8.36-5.95-11.5ZM420.16,528.79c3.22-2.06,7.14-3.09,11.78-3.09,4.11,0,7.59.97,10.43,2.92,2.84,1.95,5.01,4.6,6.51,7.96,1.03,2.32,1.66,4.88,1.95,7.63h-40.07c.41-2.46,1.07-4.78,2.05-6.9,1.68-3.63,4.13-6.47,7.35-8.53Z"/>
    <path d="M516.02,563.79c-1.31,2.88-3.31,5.2-6,6.95-2.69,1.76-6.25,2.64-10.66,2.64-4.64,0-8.56-1.01-11.78-3.03-3.22-2.02-5.66-4.82-7.35-8.41-1.68-3.59-2.52-7.67-2.52-12.23s.84-8.75,2.52-12.34c1.68-3.59,4.13-6.43,7.35-8.53,3.22-2.09,7.14-3.14,11.78-3.14,4.11,0,7.48.84,10.1,2.52,2.62,1.68,4.62,3.83,6,6.45,1.38,2.62,2.22,5.35,2.52,8.19h10.66c-.3-4.64-1.68-8.95-4.15-12.96-2.47-4-5.85-7.25-10.15-9.76-4.3-2.51-9.29-3.76-14.98-3.76-6.51,0-12.15,1.42-16.94,4.26-4.79,2.84-8.51,6.77-11.16,11.78-2.66,5.01-3.98,10.77-3.98,17.28s1.33,12.15,3.98,17.16c2.65,5.01,6.38,8.92,11.16,11.72,4.78,2.8,10.43,4.21,16.94,4.21,5.91,0,11.01-1.22,15.31-3.65,4.3-2.43,7.67-5.78,10.1-10.04,2.43-4.26,3.79-9.09,4.09-14.47h-10.43c-.3,3.22-1.1,6.27-2.41,9.14Z"/>
    <path d="M580.13,518.86c-3.22-1.64-6.84-2.47-10.88-2.47-4.41,0-8.1.71-11.05,2.13-2.96,1.42-5.31,3.24-7.07,5.44-1.31,1.64-2.34,3.34-3.09,5.09v-32.18h-10.1v84.14h10.1v-31.64c0-5.01.86-9.29,2.58-12.84,1.72-3.55,4-6.32,6.84-8.3,2.84-1.98,5.95-2.97,9.31-2.97s6.15.73,8.13,2.19c1.98,1.46,3.38,3.57,4.21,6.34.82,2.77,1.23,6.1,1.23,9.98v37.24h10.1v-38.7c0-6.43-.92-11.53-2.75-15.31-1.83-3.77-4.36-6.49-7.57-8.13Z"/>
  </g>
  <g>
    <polygon points="373.14 267.39 367.29 243.46 357.56 243.46 351.72 267.39 345.88 243.46 336.29 243.46 345.94 280.77 357.49 280.77 362.43 261.69 367.36 280.77 378.92 280.77 388.56 243.46 378.98 243.46 373.14 267.39"/>
    <path d="M415.54,244.68c-2.09-.7-4.5-1.1-7.16-1.19l-14.43-.02v37.3h9.59v-11.48h4.84v-.02c2.67-.09,5.08-.49,7.16-1.19,2.5-.84,4.49-2.24,5.91-4.16,1.43-1.93,2.15-4.46,2.15-7.54s-.72-5.65-2.16-7.57c-1.42-1.9-3.4-3.29-5.91-4.13ZM413.72,256.38c0,1.22-.22,2.13-.67,2.69-.45.58-1.11.97-2,1.19-1.04.26-2.33.39-3.84.39h-3.67v-8.54h3.67c1.49,0,2.78.13,3.84.39.89.22,1.55.6,2,1.18.45.57.67,1.48.67,2.7Z"/>
    <polygon points="427.1 244 427.1 252.64 437.98 252.64 437.98 281.3 447.57 281.3 447.57 252.64 458.45 252.64 458.45 244 427.1 244"/>
  </g>
  <g>
    <path d="M196.18,373.98c2.4-3.73,3.68-7.56,8.42-9.05,6.27-1.97,29.73-1.99,35.65.59,3.1,1.35,6.38,7.21,8.27,10.24,1.55,2.49,3.02,5.07,4.52,7.62.22.31.43.55.66.92,9.51,15.46,14.32,15.88,20.07,18.13,6.88,1.71,13.1,6.07,16.89,12.71,7.36,12.89,2.87,29.31-10.02,36.67-12.89,7.36-29.31,2.87-36.67-10.02-3.68-6.45-4.4-13.78-2.58-20.42,0-.06-.04-.09-.04-.15.33-7.38,3.99-10.14-6.21-27.49-.32-.54-.52-1-.73-1.47-1.46-2.42-2.91-4.83-4.33-7.21-1.66-2.79-4.73-10.58-8.2-10.77-2.39-.13-3.62,2.01-4.23,2.95-9.84,15.42-17.53,29.92-26.63,45.54-1.23,2.12-8.26,15.22-8.82,15.78-.21.22-3.26,6.76-5.46,6.99-2.12.22-11.22-18.07-11.17-18.75,3.47-7.29,9.29-16.04,13.31-23.06,5.66-9.88,11.21-20.29,17.3-29.76Z"/>
    <path d="M241.89,355.18c-2.17-2.15-12.3-20.57-13.72-24.08-2.3-5.67-1.35-9.19,1.17-14.42,1.49-3.09,3.18-6.3,4.95-9.54.24-.62.58-1.3,1.04-2.07,10.28-17.31,6.64-20.08,6.34-27.46,0-.09.05-.15.06-.23-3.13-11.54,1.67-24.15,12.53-30.35,12.89-7.36,29.31-2.87,36.67,10.02,7.36,12.89,2.87,29.31-10.02,36.67-1.84,1.05-3.77,1.8-5.72,2.37,0,0,0,0,0,0-5.71,2.6-9.55,1.6-17.19,11.62h0s-1.25,1.51-3.1,3.74c-1.41,1.71-3.17,3.85-5.01,6.09-4.91,5.99-10.31,12.64-10.75,13.45-.97,1.79-2.01,4.73-.01,6.94.55.61,1.37,1.03,2.27,1.33.08.03.17.05.26.08.99.3,2.04.48,2.93.56.03.01.08.07.1.07h.9c.65.03,1.1.02,1.1.02l.03-.02,80.4.08c.14.77.14,1.3-.14,1.96-1.22,2.89-5.28,9.49-7.1,12.47-.9,1.48-2.41,4.55-4.31,4.57l-65.63-.04c-3.93-.13-6.85-2.69-8.04-3.86Z"/>
    <path d="M129.15,325.59c10.76-6.14,23.92-3.94,32.27,4.43.1.04.2.02.3.1,5.99,4.32,6.3,8.89,26.41,9.85.88.04,1.63.13,2.27.27,6.8.15,1.66.21,8.28-.06,4.04-.17,6.27-3.03,4.31-7.05l-9.37-15.73c-10.08-16.32-17.48-18.31-23.94-21.21-6.71-1.78-12.72-6.13-16.43-12.64-7.36-12.89-2.87-29.31,10.02-36.67,12.89-7.36,29.31-2.87,36.67,10.02,3.76,6.58,4.39,14.07,2.43,20.81,0,.04.03.07.02.12-.51,6.35-3.2,9.93,2.21,22.12,3.81,6.3,7.39,12.56,9.98,18.3,2.2,4.87,2.27,8.52.16,13.44-1.94,4.53-9.24,17.21-12.21,21.11-1.87,2.46-6.78,6.11-10.23,6.16l-4.72-.02c-19.46.42-20.39,4.75-26.08,8.8-1.69,1.71-3.53,3.28-5.71,4.53-12.89,7.36-29.31,2.87-36.67-10.02-7.36-12.89-2.87-29.31,10.02-36.67Z"/>
  </g>
</svg>