<?xml version="1.0" encoding="UTF-8"?>
<svg id="Layer_1" xmlns="http://www.w3.org/2000/svg" version="1.1" viewBox="0 0 800 272.69">
  <!-- Generator: Adobe Illustrator 29.8.4, SVG Export Plug-In . SVG Version: 2.1.1 Build 6)  -->
  <defs>
    <style>
      .st0 {
        fill: #0a0a0a;
      }
    </style>
  </defs>
  <g>
    <path class="st0" d="M117.61,157.31c1-1.56,1.54-3.15,3.51-3.77,2.61-.82,12.4-.83,14.87.25,1.29.56,2.66,3.01,3.45,4.27.65,1.04,1.26,2.11,1.88,3.18.09.13.18.23.27.38,3.97,6.45,5.97,6.62,8.37,7.56,2.87.71,5.46,2.53,7.04,5.3,3.07,5.38,1.2,12.22-4.18,15.29-5.38,3.07-12.22,1.2-15.29-4.18-1.53-2.69-1.83-5.75-1.08-8.51,0-.02-.02-.04-.02-.06.14-3.08,1.66-4.23-2.59-11.46-.13-.23-.22-.42-.3-.61-.61-1.01-1.21-2.01-1.81-3.01-.69-1.16-1.97-4.41-3.42-4.49-1-.05-1.51.84-1.76,1.23-4.1,6.43-7.31,12.48-11.11,18.99-.51.88-3.44,6.35-3.68,6.58-.09.09-1.36,2.82-2.28,2.91-.88.09-4.68-7.54-4.66-7.82,1.45-3.04,3.88-6.69,5.55-9.62,2.36-4.12,4.67-8.46,7.21-12.41Z"/>
    <path class="st0" d="M136.67,149.47c-.9-.9-5.13-8.58-5.72-10.04-.96-2.36-.56-3.83.49-6.01.62-1.29,1.33-2.63,2.06-3.98.1-.26.24-.54.43-.86,4.29-7.22,2.77-8.37,2.64-11.45,0-.04.02-.06.03-.09-1.31-4.81.69-10.07,5.22-12.66,5.38-3.07,12.22-1.2,15.29,4.18,3.07,5.38,1.2,12.22-4.18,15.29-.77.44-1.57.75-2.38.99,0,0,0,0,0,0-2.38,1.09-3.98.67-7.17,4.85h0s-.52.63-1.29,1.56c-.59.71-1.32,1.61-2.09,2.54-2.05,2.5-4.3,5.27-4.48,5.61-.4.75-.84,1.97,0,2.89.23.25.57.43.95.55.03.01.07.02.11.03.41.13.85.2,1.22.23.01,0,.03.03.04.03h.38c.27.01.46.01.46.01h.01s33.53.03,33.53.03c.06.32.06.54-.06.82-.51,1.21-2.2,3.96-2.96,5.2-.38.62-1,1.9-1.8,1.91l-27.37-.02c-1.64-.06-2.86-1.12-3.35-1.61Z"/>
    <path class="st0" d="M89.66,137.13c4.49-2.56,9.97-1.64,13.46,1.85.04.02.08.01.12.04,2.5,1.8,2.63,3.71,11.01,4.11.37.02.68.06.95.11,2.84.06.69.09,3.45-.03,1.68-.07,2.61-1.26,1.8-2.94l-3.91-6.56c-4.2-6.81-7.29-7.64-9.98-8.84-2.8-.74-5.31-2.56-6.85-5.27-3.07-5.38-1.2-12.22,4.18-15.29,5.38-3.07,12.22-1.2,15.29,4.18,1.57,2.74,1.83,5.87,1.01,8.68,0,.02.01.03.01.05-.21,2.65-1.33,4.14.92,9.23,1.59,2.63,3.08,5.24,4.16,7.63.92,2.03.95,3.55.07,5.6-.81,1.89-3.85,7.18-5.09,8.8-.78,1.02-2.83,2.55-4.26,2.57h-1.97c-8.12.17-8.5,1.97-10.88,3.66-.7.71-1.47,1.37-2.38,1.89-5.38,3.07-12.22,1.2-15.29-4.18-3.07-5.38-1.2-12.22,4.18-15.29Z"/>
  </g>
  <g>
    <polygon class="st0" points="242.83 147.2 233.65 184.8 224.46 147.2 223.34 147.2 218.52 147.2 217.4 147.2 208.21 184.8 199.03 147.2 193.15 147.2 204.46 190.94 206.71 190.94 209.71 190.94 212.02 190.94 220.93 156.5 229.84 190.94 232.15 190.94 235.15 190.94 237.4 190.94 248.71 147.2 242.83 147.2"/>
    <path class="st0" d="M275.58,159.26c-2.37-2.87-5.92-4.31-10.62-4.31-3.21,0-5.94.64-8.19,1.91-2.25,1.27-3.95,2.92-5.09,4.94-1.15,2.02-1.72,4.18-1.72,6.47h6c0-2.29.77-4.23,2.31-5.81,1.54-1.58,3.77-2.38,6.69-2.38,2,0,3.62.44,4.87,1.31,1.25.87,2.17,2.11,2.75,3.72.44,1.22.72,2.64.82,4.26-2.01-.1-4.02-.14-6.04-.11-2.19.04-4.28.27-6.28.69-2,.42-3.78,1.06-5.34,1.94-1.56.87-2.8,2.05-3.72,3.53-.92,1.48-1.38,3.34-1.38,5.59s.54,4.31,1.63,5.94c1.08,1.62,2.55,2.87,4.41,3.72,1.85.85,3.93,1.28,6.22,1.28,2.58,0,4.71-.49,6.37-1.47,1.67-.98,2.98-2.35,3.94-4.12.09-.17.16-.35.25-.52v5.12h5.69v-20c0-4.92-1.19-8.81-3.56-11.69ZM272.36,182.19c-.73,1.5-1.78,2.69-3.16,3.56-1.37.88-3.04,1.31-5,1.31-2.5,0-4.4-.54-5.69-1.62-1.29-1.08-1.94-2.67-1.94-4.75,0-2.5,1.54-4.45,4.62-5.84,2.79-1.26,6.88-1.67,12.25-1.25v3.53c0,1.87-.37,3.56-1.09,5.06Z"/>
    <path class="st0" d="M289.45,179.88c.21,2.33,1.21,4.12,3,5.37,1.79,1.25,3.96,1.87,6.5,1.87s4.56-.49,6.06-1.47c1.5-.98,2.25-2.49,2.25-4.53,0-1.17-.41-2.07-1.22-2.72-.81-.65-1.91-1.14-3.28-1.47-1.37-.33-2.87-.63-4.47-.87-1.6-.25-3.23-.56-4.87-.94-1.65-.38-3.15-.92-4.5-1.63-1.35-.71-2.45-1.69-3.28-2.94-.83-1.25-1.25-2.87-1.25-4.87,0-1.87.57-3.63,1.72-5.28,1.15-1.65,2.78-2.97,4.91-3.97,2.12-1,4.6-1.5,7.44-1.5,2.54,0,4.86.51,6.97,1.53,2.1,1.02,3.78,2.43,5.03,4.22,1.25,1.79,1.88,3.87,1.88,6.25h-5.19c-.17-2.37-1.09-4.17-2.78-5.37-1.69-1.21-3.74-1.81-6.16-1.81-2.71,0-4.76.56-6.16,1.69-1.4,1.13-2.09,2.54-2.09,4.25,0,1.29.42,2.28,1.25,2.97.83.69,1.94,1.21,3.31,1.56,1.37.35,2.87.66,4.5.91,1.62.25,3.25.56,4.87.94,1.63.37,3.11.9,4.47,1.56,1.35.67,2.45,1.59,3.28,2.78.83,1.19,1.25,2.76,1.25,4.72,0,2.21-.57,4.12-1.72,5.75-1.15,1.63-2.78,2.87-4.91,3.75-2.12.87-4.67,1.31-7.62,1.31-2.75,0-5.22-.53-7.41-1.59-2.19-1.06-3.93-2.5-5.22-4.31-1.29-1.81-1.98-3.86-2.06-6.16h5.5Z"/>
    <path class="st0" d="M330.83,186.13c-1.25,0-2.21-.32-2.87-.97-.67-.65-1-1.68-1-3.09v-21.31h6.94v-4.81h-6.94v-8.75h-5.62v8.75h-5.87v4.81h5.87v21.31c0,2.63.78,4.76,2.34,6.41,1.56,1.65,3.93,2.47,7.09,2.47h4.12v-4.81h-4.06Z"/>
    <path class="st0" d="M369.7,166.73c-.71-2.52-1.81-4.66-3.31-6.41-1.5-1.75-3.28-3.08-5.34-4-2.06-.92-4.28-1.37-6.66-1.37-3.62,0-6.77.79-9.44,2.37-2.67,1.58-4.74,3.77-6.22,6.56-1.48,2.79-2.22,6-2.22,9.62s.74,6.77,2.22,9.56c1.48,2.79,3.55,4.97,6.22,6.53,2.67,1.56,5.81,2.34,9.44,2.34,2.83,0,5.34-.51,7.53-1.53,2.19-1.02,3.99-2.43,5.41-4.22,1.42-1.79,2.42-3.9,3-6.31h-6c-.63,1.92-1.73,3.54-3.31,4.87-1.58,1.33-3.79,2-6.62,2-2.58,0-4.77-.57-6.56-1.72-1.79-1.15-3.16-2.72-4.09-4.72-.7-1.49-1.14-3.14-1.32-4.94h27.97c.25-3.25.02-6.13-.69-8.66ZM347.82,161.85c1.79-1.15,3.98-1.72,6.56-1.72,2.29,0,4.23.54,5.81,1.63,1.58,1.08,2.79,2.56,3.62,4.44.58,1.29.93,2.72,1.09,4.25h-22.32c.23-1.37.6-2.66,1.14-3.84.94-2.02,2.3-3.6,4.09-4.75Z"/>
    <path class="st0" d="M410.97,152.95c-1.52-2.04-3.71-3.51-6.56-4.41-2.85-.9-6.26-1.34-10.22-1.34h-14.19v43.75h5.75v-15.81h8.44c3.96,0,7.36-.45,10.22-1.34,2.85-.9,5.04-2.38,6.56-4.47,1.52-2.08,2.28-4.81,2.28-8.19s-.76-6.14-2.28-8.19ZM405.72,166.6c-1.02,1.31-2.5,2.22-4.44,2.72-1.94.5-4.3.75-7.09.75h-8.44v-17.81h8.44c2.79,0,5.16.25,7.09.75,1.94.5,3.42,1.4,4.44,2.69,1.02,1.29,1.53,3.1,1.53,5.44s-.51,4.16-1.53,5.47Z"/>
    <path class="st0" d="M434.19,191.94c-3.62,0-6.77-.78-9.44-2.34-2.67-1.56-4.74-3.74-6.22-6.53-1.48-2.79-2.22-5.98-2.22-9.56s.74-6.83,2.22-9.62c1.48-2.79,3.55-4.98,6.22-6.56,2.67-1.58,5.81-2.37,9.44-2.37s6.77.79,9.44,2.37c2.67,1.58,4.74,3.77,6.22,6.56,1.48,2.79,2.22,6,2.22,9.62s-.74,6.77-2.22,9.56c-1.48,2.79-3.55,4.97-6.22,6.53-2.67,1.56-5.81,2.34-9.44,2.34ZM434.19,186.75c2.42,0,4.52-.54,6.31-1.62,1.79-1.08,3.19-2.61,4.19-4.59,1-1.98,1.5-4.32,1.5-7.03s-.5-5.12-1.5-7.12c-1-2-2.4-3.54-4.19-4.62-1.79-1.08-3.9-1.63-6.31-1.63s-4.53.54-6.34,1.63c-1.81,1.08-3.22,2.62-4.22,4.62-1,2-1.5,4.37-1.5,7.12s.5,5.05,1.5,7.03c1,1.98,2.41,3.51,4.22,4.59,1.81,1.08,3.93,1.62,6.34,1.62Z"/>
    <polygon class="st0" points="492.62 155.95 486.27 184.41 479.56 155.95 478.44 155.95 474.31 155.95 473.25 155.95 466.53 184.43 460.12 155.95 454.06 155.95 463.12 190.94 465 190.94 468 190.94 470.19 190.94 476.37 164.69 482.56 190.94 484.81 190.94 487.81 190.94 489.68 190.94 498.75 155.95 492.62 155.95"/>
    <path class="st0" d="M533.93,166.73c-.71-2.52-1.81-4.66-3.31-6.41-1.5-1.75-3.28-3.08-5.34-4-2.06-.92-4.28-1.37-6.66-1.37-3.62,0-6.77.79-9.44,2.37-2.67,1.58-4.74,3.77-6.22,6.56-1.48,2.79-2.22,6-2.22,9.62s.74,6.77,2.22,9.56c1.48,2.79,3.55,4.97,6.22,6.53,2.67,1.56,5.81,2.34,9.44,2.34,2.83,0,5.34-.51,7.53-1.53,2.19-1.02,3.99-2.43,5.41-4.22,1.42-1.79,2.42-3.9,3-6.31h-6c-.63,1.92-1.73,3.54-3.31,4.87-1.58,1.33-3.79,2-6.62,2-2.58,0-4.77-.57-6.56-1.72-1.79-1.15-3.16-2.72-4.09-4.72-.7-1.49-1.14-3.14-1.32-4.94h27.97c.25-3.25.02-6.13-.69-8.66ZM512.06,161.85c1.79-1.15,3.98-1.72,6.56-1.72,2.29,0,4.23.54,5.81,1.63,1.58,1.08,2.79,2.56,3.62,4.44.58,1.29.93,2.72,1.09,4.25h-22.32c.23-1.37.6-2.66,1.14-3.84.94-2.02,2.3-3.6,4.09-4.75Z"/>
    <path class="st0" d="M550.62,156.26c-1.71.88-3.01,1.97-3.91,3.28-.57.84-1.01,1.7-1.34,2.57v-6.17h-5.62v35h5.62v-19c0-2.79.49-5,1.47-6.62.98-1.62,2.36-2.79,4.16-3.5,1.79-.71,3.92-1.06,6.37-1.06v-5.81c-2.79,0-5.04.44-6.75,1.31Z"/>
    <polygon class="st0" points="598.05 147.2 584.17 147.2 578.42 147.2 564.55 147.2 564.55 152.26 578.42 152.26 578.42 190.94 584.17 190.94 584.17 152.26 598.05 152.26 598.05 147.2"/>
    <path class="st0" d="M627.98,166.73c-.71-2.52-1.81-4.66-3.31-6.41-1.5-1.75-3.28-3.08-5.34-4-2.06-.92-4.28-1.37-6.66-1.37-3.62,0-6.77.79-9.44,2.37-2.67,1.58-4.74,3.77-6.22,6.56-1.48,2.79-2.22,6-2.22,9.62s.74,6.77,2.22,9.56c1.48,2.79,3.55,4.97,6.22,6.53,2.67,1.56,5.81,2.34,9.44,2.34,2.83,0,5.34-.51,7.53-1.53,2.19-1.02,3.99-2.43,5.41-4.22,1.42-1.79,2.42-3.9,3-6.31h-6c-.63,1.92-1.73,3.54-3.31,4.87-1.58,1.33-3.79,2-6.62,2-2.58,0-4.77-.57-6.56-1.72-1.79-1.15-3.16-2.72-4.09-4.72-.7-1.49-1.14-3.14-1.32-4.94h27.97c.25-3.25.02-6.13-.69-8.66ZM606.11,161.85c1.79-1.15,3.98-1.72,6.56-1.72,2.29,0,4.23.54,5.81,1.63,1.58,1.08,2.79,2.56,3.62,4.44.58,1.29.93,2.72,1.09,4.25h-22.32c.23-1.37.6-2.66,1.14-3.84.94-2.02,2.3-3.6,4.09-4.75Z"/>
    <path class="st0" d="M666.67,176.26c-.17,3-.93,5.69-2.28,8.06-1.35,2.37-3.23,4.24-5.62,5.59-2.4,1.35-5.24,2.03-8.53,2.03-3.62,0-6.77-.78-9.44-2.34-2.67-1.56-4.74-3.74-6.22-6.53-1.48-2.79-2.22-5.98-2.22-9.56s.74-6.83,2.22-9.62c1.48-2.79,3.55-4.98,6.22-6.56,2.67-1.58,5.81-2.37,9.44-2.37,3.17,0,5.95.7,8.34,2.09,2.4,1.4,4.28,3.21,5.66,5.44,1.37,2.23,2.15,4.64,2.31,7.22h-5.94c-.17-1.58-.64-3.1-1.41-4.56-.77-1.46-1.89-2.66-3.34-3.59-1.46-.94-3.33-1.41-5.62-1.41-2.58,0-4.77.58-6.56,1.75-1.79,1.17-3.16,2.75-4.09,4.75-.94,2-1.41,4.29-1.41,6.87s.47,4.81,1.41,6.81c.94,2,2.3,3.56,4.09,4.69,1.79,1.13,3.98,1.69,6.56,1.69s4.44-.49,5.94-1.47c1.5-.98,2.61-2.27,3.34-3.87.73-1.6,1.18-3.3,1.34-5.09h5.81Z"/>
    <path class="st0" d="M699.44,160.85c-1.02-2.1-2.43-3.61-4.22-4.53-1.79-.92-3.81-1.37-6.06-1.37-2.46,0-4.51.4-6.16,1.19-1.65.79-2.96,1.8-3.94,3.03-.73.92-1.3,1.86-1.72,2.83v-18.95h-5.62v47.9h5.62v-17.62c0-2.79.48-5.18,1.44-7.16.96-1.98,2.23-3.52,3.81-4.63,1.58-1.1,3.31-1.66,5.19-1.66s3.43.41,4.53,1.22c1.1.81,1.88,1.99,2.34,3.53.46,1.54.69,3.4.69,5.56v20.75h5.62v-21.56c0-3.58-.51-6.43-1.53-8.53Z"/>
  </g>
  <g>
    <polygon class="st0" points="211.16 126.23 207.31 110.45 200.89 110.45 197.04 126.23 193.18 110.45 186.86 110.45 193.23 135.05 200.85 135.05 204.1 122.47 207.35 135.05 214.97 135.05 221.34 110.45 215.02 110.45 211.16 126.23"/>
    <path class="st0" d="M239.13,111.25c-1.38-.46-2.97-.73-4.72-.79h-9.52s0,24.59,0,24.59h6.32v-7.57h3.19c1.76-.07,3.35-.34,4.72-.8,1.65-.56,2.96-1.48,3.9-2.75.94-1.27,1.42-2.94,1.42-4.97s-.48-3.73-1.42-4.99c-.93-1.25-2.24-2.17-3.9-2.73ZM237.93,118.96c0,.8-.15,1.4-.44,1.77-.3.38-.74.64-1.32.78-.69.17-1.54.26-2.53.26h-2.42v-5.63h2.42c.98,0,1.84.09,2.53.26.59.14,1.02.4,1.32.78.3.38.44.97.44,1.78Z"/>
    <polygon class="st0" points="246.75 110.41 246.75 116.1 253.93 116.1 253.93 135.01 260.25 135.01 260.25 116.1 267.43 116.1 267.43 110.41 246.75 110.41"/>
  </g>
</svg>