<?xml version="1.0" encoding="UTF-8" standalone="no"?>
<!-- Created with Inkscape (http://www.inkscape.org/) -->

<svg
   width="23.334311mm"
   height="16.772846mm"
   viewBox="0 0 23.334311 16.772846"
   version="1.1"
   id="svg1"
   xmlns:inkscape="http://www.inkscape.org/namespaces/inkscape"
   xmlns:sodipodi="http://sodipodi.sourceforge.net/DTD/sodipodi-0.dtd"
   xmlns="http://www.w3.org/2000/svg"
   xmlns:svg="http://www.w3.org/2000/svg">
  <sodipodi:namedview
     id="namedview1"
     pagecolor="#ffffff"
     bordercolor="#111111"
     borderopacity="1"
     inkscape:showpageshadow="0"
     inkscape:pageopacity="0"
     inkscape:pagecheckerboard="1"
     inkscape:deskcolor="#d1d1d1"
     inkscape:document-units="mm"
     inkscape:export-bgcolor="#ffffff00">
    <inkscape:page
       x="0"
       y="0"
       width="23.334311"
       height="16.772846"
       id="page2"
       margin="0"
       bleed="0" />
  </sodipodi:namedview>
  <defs
     id="defs1">
    <clipPath
       clipPathUnits="userSpaceOnUse"
       id="clipPath2234">
      <path
         d="M 0,595.276 H 595.276 V 0 H 0 Z"
         transform="translate(-258.87731,-320.86211)"
         id="path2234" />
    </clipPath>
    <clipPath
       clipPathUnits="userSpaceOnUse"
       id="clipPath2236">
      <path
         d="M 0,595.276 H 595.276 V 0 H 0 Z"
         transform="translate(-218.12906,-317.61571)"
         id="path2236" />
    </clipPath>
    <clipPath
       clipPathUnits="userSpaceOnUse"
       id="clipPath2238">
      <path
         d="M 0,595.276 H 595.276 V 0 H 0 Z"
         transform="translate(-220.33556,-313.28731)"
         id="path2238" />
    </clipPath>
    <clipPath
       clipPathUnits="userSpaceOnUse"
       id="clipPath2240">
      <path
         d="M 0,595.276 H 595.276 V 0 H 0 Z"
         transform="translate(-215.06906,-329.88201)"
         id="path2240" />
    </clipPath>
    <clipPath
       clipPathUnits="userSpaceOnUse"
       id="clipPath2242">
      <path
         d="M 0,595.276 H 595.276 V 0 H 0 Z"
         transform="translate(-227.33381,-312.43421)"
         id="path2242" />
    </clipPath>
    <clipPath
       clipPathUnits="userSpaceOnUse"
       id="clipPath2244">
      <path
         d="M 0,595.276 H 595.276 V 0 H 0 Z"
         transform="translate(-223.40006,-302.70351)"
         id="path2244" />
    </clipPath>
    <clipPath
       clipPathUnits="userSpaceOnUse"
       id="clipPath2246">
      <path
         d="M 0,595.276 H 595.276 V 0 H 0 Z"
         transform="translate(-218.20856,-337.62291)"
         id="path2246" />
    </clipPath>
    <clipPath
       clipPathUnits="userSpaceOnUse"
       id="clipPath2248">
      <path
         d="M 0,595.276 H 595.276 V 0 H 0 Z"
         transform="translate(-228.55931,-336.81921)"
         id="path2248" />
    </clipPath>
  </defs>
  <g
     inkscape:label="Layer 1"
     inkscape:groupmode="layer"
     id="layer1"
     transform="translate(-51.746579,-110.45523)">
    <path
       id="path2233"
       d="m 0,0 c -0.31,0.009 -0.707,0.892 -0.506,1.093 0.161,0.161 0.622,0.401 0.892,0.404 L 3.935,1.542 0.212,8.98 -8.652,8.961 c -0.338,-10e-4 -0.93,0.35 -1.001,0.638 -0.07,0.288 0.437,0.883 0.765,0.887 l 8.284,0.087 -6.285,12.437 -12.18,-22.349 12.193,-20.286 5.77,10.527 -7.794,0.015 c -0.323,0.16 -0.741,0.582 -0.758,0.874 -0.014,0.244 0.531,0.683 0.85,0.683 l 8.573,0.011 4.021,7.407 z m -10.307,-16.983 -10.556,17.619 10.698,19.641 c -0.467,0.977 -0.785,1.595 -1.432,2.654 L -23.733,0.664 -11.607,-19.543 c 0.628,0.78 1.076,1.597 1.3,2.56 m -4.827,0.264 -10.392,17.355 10.527,19.337 -1.61,2.997 -12.158,-22.311 12.162,-20.238 c 0.728,1.15 1.116,1.853 1.471,2.86 m 35.899,16.848 -5.08,-3.896 c -0.203,-0.156 -0.841,-0.025 -0.947,0.149 -0.132,0.217 -0.113,0.949 0.131,1.142 l 3.058,2.409 -12.308,0.029 -4.054,-7.448 7.161,0.015 -2.929,2.418 c -0.22,0.182 -0.326,0.909 -0.145,1.115 0.182,0.207 0.88,0.25 1.131,0.055 l 4.74,-3.679 c 0.315,-0.245 0.462,-1.072 0.134,-1.327 l -4.923,-3.83 c -0.213,-0.165 -0.881,-0.107 -1.065,0.088 -0.184,0.195 -0.107,0.933 0.131,1.129 L 8.649,-9.153 0.678,-9.084 -6.08,-21.47 c -0.083,-0.153 -0.387,-0.43 -0.53,-0.51 -0.193,-0.106 -0.77,0.17 -0.916,0.4 l -1.727,2.732 -1.503,-2.594 c -0.098,-0.169 -0.366,-0.437 -0.5,-0.528 -0.179,-0.122 -0.779,0.158 -0.894,0.338 l -1.969,3.092 -1.618,-2.809 c -0.098,-0.17 -0.329,-0.462 -0.436,-0.592 -0.141,-0.17 -0.865,0.003 -1.012,0.248 l -13.374,22.319 13.311,24.463 c 0.092,0.168 0.485,0.447 0.636,0.447 0.2,10e-4 0.65,-0.278 0.75,-0.467 l 1.766,-3.311 1.798,3.144 c 0.107,0.189 0.431,0.501 0.609,0.591 0.223,0.113 0.792,-0.271 0.922,-0.52 l 1.513,-2.893 1.613,2.816 c 0.105,0.185 0.427,0.487 0.603,0.58 0.221,0.116 0.825,-0.251 0.943,-0.484 L 1.202,10.506 8.688,10.549 5.845,12.94 c -0.186,0.157 -0.336,0.727 -0.319,0.948 0.022,0.277 0.867,0.527 1.138,0.318 l 4.864,-3.749 c 0.319,-0.246 0.396,-1.123 0.127,-1.332 L 6.811,5.352 C 6.562,5.157 5.865,5.142 5.675,5.384 5.451,5.669 5.635,6.387 5.89,6.596 L 8.718,8.924 2.008,8.947 5.694,1.516 17.902,1.523 14.865,3.945 c -0.24,0.192 -0.32,0.91 -0.153,1.11 0.167,0.201 0.856,0.292 1.069,0.126 L 20.649,1.396 C 20.884,1.214 21.01,0.317 20.765,0.129"
       style="fill:#ffffff;fill-opacity:1;fill-rule:nonzero;stroke:none"
       transform="matrix(0.35277776,0,0,-0.35277776,67.708553,119.46375)"
       clip-path="url(#clipPath2234)" />
    <path
       id="path2235"
       d="M 0,0 C 0.778,0.131 1.648,-0.613 1.739,-1.232 1.867,-2.106 1.242,-2.963 0.547,-3.082 -0.312,-3.23 -1.099,-2.705 -1.298,-2.051 -1.563,-1.178 -1.162,-0.196 0,0"
       style="fill:#ffffff;fill-opacity:1;fill-rule:nonzero;stroke:none"
       transform="matrix(0.35277776,0,0,-0.35277776,53.333475,120.60901)"
       clip-path="url(#clipPath2236)" />
    <path
       id="path2237"
       d="M 0,0 C 0.837,0.392 1.77,0.06 2.165,-0.79 2.415,-1.328 2.123,-2.394 1.551,-2.732 0.842,-3.15 -0.183,-2.914 -0.61,-2.264 -1.065,-1.571 -0.879,-0.411 0,0"
       style="fill:#ffffff;fill-opacity:1;fill-rule:nonzero;stroke:none"
       transform="matrix(0.35277776,0,0,-0.35277776,54.111879,122.13597)"
       clip-path="url(#clipPath2238)" />
    <path
       id="path2239"
       d="M 0,0 C 0.885,0.101 1.662,-0.723 1.678,-1.421 1.699,-2.276 1.065,-3.025 0.376,-3.098 -0.545,-3.197 -1.291,-2.584 -1.411,-1.878 -1.564,-0.978 -1.071,-0.122 0,0"
       style="fill:#ffffff;fill-opacity:1;fill-rule:nonzero;stroke:none"
       transform="matrix(0.35277776,0,0,-0.35277776,52.253975,116.28173)"
       clip-path="url(#clipPath2240)" />
    <path
       id="path2241"
       d="M 0,0 C 0.949,0.541 1.897,0.15 2.292,-0.739 2.53,-1.275 2.268,-2.283 1.599,-2.679 0.927,-3.076 -0.007,-2.839 -0.504,-2.16 -0.921,-1.59 -0.814,-0.464 0,0"
       style="fill:#ffffff;fill-opacity:1;fill-rule:nonzero;stroke:none"
       transform="matrix(0.35277776,0,0,-0.35277776,56.580703,122.43693)"
       clip-path="url(#clipPath2242)" />
    <path
       id="path2243"
       d="M 0,0 C 0.802,0.245 1.727,-0.332 1.918,-1.053 2.117,-1.805 1.677,-2.731 1.023,-2.96 0.192,-3.251 -0.708,-2.896 -1.034,-2.096 -1.336,-1.355 -0.982,-0.299 0,0"
       style="fill:#ffffff;fill-opacity:1;fill-rule:nonzero;stroke:none"
       transform="matrix(0.35277776,0,0,-0.35277776,55.192966,125.8697)"
       clip-path="url(#clipPath2244)" />
    <path
       id="path2245"
       d="M 0,0 C 0.712,0.269 1.695,-0.171 1.938,-0.751 2.287,-1.585 1.953,-2.544 1.226,-2.883 0.438,-3.251 -0.539,-2.878 -0.887,-2.15 -1.251,-1.389 -0.93,-0.352 0,0"
       style="fill:#ffffff;fill-opacity:1;fill-rule:nonzero;stroke:none"
       transform="matrix(0.35277776,0,0,-0.35277776,53.36152,113.55091)"
       clip-path="url(#clipPath2246)" />
    <path
       id="path2247"
       d="M 0,0 C 0.738,0.27 1.688,-0.145 1.95,-0.756 2.291,-1.554 1.946,-2.534 1.233,-2.871 0.45,-3.24 -0.53,-2.865 -0.866,-2.155 -1.234,-1.376 -0.923,-0.338 0,0"
       style="fill:#ffffff;fill-opacity:1;fill-rule:nonzero;stroke:none"
       transform="matrix(0.35277776,0,0,-0.35277776,57.013033,113.83444)"
       clip-path="url(#clipPath2248)" />
  </g>
</svg>
