<?xml version="1.0" encoding="UTF-8" standalone="no"?>
<!-- Created with Inkscape (http://www.inkscape.org/) -->

<svg
   width="20.169004mm"
   height="13.665979mm"
   viewBox="0 0 20.169004 13.665979"
   version="1.1"
   id="svg1"
   xmlns:inkscape="http://www.inkscape.org/namespaces/inkscape"
   xmlns:sodipodi="http://sodipodi.sourceforge.net/DTD/sodipodi-0.dtd"
   xmlns="http://www.w3.org/2000/svg"
   xmlns:svg="http://www.w3.org/2000/svg">
  <sodipodi:namedview
     id="namedview1"
     pagecolor="#ffffff"
     bordercolor="#111111"
     borderopacity="1"
     inkscape:showpageshadow="0"
     inkscape:pageopacity="0"
     inkscape:pagecheckerboard="1"
     inkscape:deskcolor="#d1d1d1"
     inkscape:document-units="mm"
     inkscape:export-bgcolor="#ffffff00">
    <inkscape:page
       x="0"
       y="1.0770126e-14"
       width="20.169004"
       height="13.665978"
       id="page2"
       margin="0"
       bleed="0" />
  </sodipodi:namedview>
  <defs
     id="defs1">
    <clipPath
       clipPathUnits="userSpaceOnUse"
       id="clipPath2041">
      <path
         d="M 0,595.276 H 595.276 V 0 H 0 Z"
         transform="translate(-132.76635,-213.1316)"
         id="path2041" />
    </clipPath>
    <clipPath
       clipPathUnits="userSpaceOnUse"
       id="clipPath2043">
      <path
         d="M 0,595.276 H 595.276 V 0 H 0 Z"
         transform="translate(-135.33735,-214.1876)"
         id="path2043" />
    </clipPath>
    <clipPath
       clipPathUnits="userSpaceOnUse"
       id="clipPath2045">
      <path
         d="M 0,595.276 H 595.276 V 0 H 0 Z"
         transform="translate(-121.12935,-206.6171)"
         id="path2045" />
    </clipPath>
    <clipPath
       clipPathUnits="userSpaceOnUse"
       id="clipPath2047">
      <path
         d="M 0,595.276 H 595.276 V 0 H 0 Z"
         transform="translate(-136.1631,-216.6494)"
         id="path2047" />
    </clipPath>
    <clipPath
       clipPathUnits="userSpaceOnUse"
       id="clipPath2049">
      <path
         d="M 0,595.276 H 595.276 V 0 H 0 Z"
         transform="translate(-86.077352,-190.54561)"
         id="path2049" />
    </clipPath>
    <clipPath
       clipPathUnits="userSpaceOnUse"
       id="clipPath2051">
      <path
         d="M 0,595.276 H 595.276 V 0 H 0 Z"
         transform="translate(-83.507102,-189.48961)"
         id="path2051" />
    </clipPath>
    <clipPath
       clipPathUnits="userSpaceOnUse"
       id="clipPath2053">
      <path
         d="M 0,595.276 H 595.276 V 0 H 0 Z"
         transform="translate(-97.714352,-197.06011)"
         id="path2053" />
    </clipPath>
    <clipPath
       clipPathUnits="userSpaceOnUse"
       id="clipPath2055">
      <path
         d="M 0,595.276 H 595.276 V 0 H 0 Z"
         transform="translate(-82.681352,-187.02781)"
         id="path2055" />
    </clipPath>
    <clipPath
       clipPathUnits="userSpaceOnUse"
       id="clipPath2057">
      <path
         d="M 0,595.276 H 595.276 V 0 H 0 Z"
         transform="translate(-108.82935,-203.28221)"
         id="path2057" />
    </clipPath>
    <clipPath
       clipPathUnits="userSpaceOnUse"
       id="clipPath2059">
      <path
         d="M 0,595.276 H 595.276 V 0 H 0 Z"
         transform="translate(-113.6526,-204.0803)"
         id="path2059" />
    </clipPath>
    <clipPath
       clipPathUnits="userSpaceOnUse"
       id="clipPath2061">
      <path
         d="M 0,595.276 H 595.276 V 0 H 0 Z"
         transform="translate(1.4999999e-4)"
         id="path2061" />
    </clipPath>
    <clipPath
       clipPathUnits="userSpaceOnUse"
       id="clipPath2063">
      <path
         d="M 0,595.276 H 595.276 V 0 H 0 Z"
         transform="translate(1.4999999e-4)"
         id="path2063" />
    </clipPath>
    <clipPath
       clipPathUnits="userSpaceOnUse"
       id="clipPath2065">
      <path
         d="M 0,595.276 H 595.276 V 0 H 0 Z"
         transform="translate(-86.648852,-197.0842)"
         id="path2065" />
    </clipPath>
    <clipPath
       clipPathUnits="userSpaceOnUse"
       id="clipPath2067">
      <path
         d="M 0,595.276 H 595.276 V 0 H 0 Z"
         transform="translate(-91.358102,-199.68661)"
         id="path2067" />
    </clipPath>
    <clipPath
       clipPathUnits="userSpaceOnUse"
       id="clipPath2069">
      <path
         d="M 0,595.276 H 595.276 V 0 H 0 Z"
         transform="translate(-94.751102,-201.64541)"
         id="path2069" />
    </clipPath>
    <clipPath
       clipPathUnits="userSpaceOnUse"
       id="clipPath2071">
      <path
         d="M 0,595.276 H 595.276 V 0 H 0 Z"
         transform="translate(-102.7551,-206.38301)"
         id="path2071" />
    </clipPath>
    <clipPath
       clipPathUnits="userSpaceOnUse"
       id="clipPath2073">
      <path
         d="M 0,595.276 H 595.276 V 0 H 0 Z"
         transform="translate(-113.0451,-212.65091)"
         id="path2073" />
    </clipPath>
    <clipPath
       clipPathUnits="userSpaceOnUse"
       id="clipPath2075">
      <path
         d="M 0,595.276 H 595.276 V 0 H 0 Z"
         transform="translate(-121.4106,-217.03741)"
         id="path2075" />
    </clipPath>
  </defs>
  <g
     inkscape:label="Layer 1"
     inkscape:groupmode="layer"
     id="layer1"
     transform="translate(-109.27278,-172.24376)">
    <path
       id="path2040"
       d="M 0,0 C -0.749,-0.394 -1.68,-0.104 -2.074,0.647 -2.466,1.394 -2.176,2.325 -1.427,2.718 -0.677,3.112 0.252,2.822 0.644,2.073 1.039,1.324 0.75,0.393 0,0 m -2.037,3.882 c -1.391,-0.73 -1.93,-2.456 -1.2,-3.846 0.731,-1.394 2.457,-1.93 3.848,-1.199 1.391,0.73 1.931,2.455 1.199,3.848 -0.73,1.39 -2.456,1.927 -3.847,1.197"
       style="fill:#ffffff;fill-opacity:1;fill-rule:nonzero;stroke:none"
       transform="matrix(0.35277776,0,0,-0.35277776,127.59257,174.82418)"
       clip-path="url(#clipPath2041)" />
    <path
       id="path2042"
       d="M 0,0 C -0.074,0.206 -0.172,0.405 -0.24,0.536 -0.288,0.628 -0.341,0.721 -0.384,0.79 l -0.01,0.018 0.312,0.195 0.011,-0.016 C -0.065,0.977 0.003,0.868 0.092,0.697 0.132,0.621 0.172,0.54 0.21,0.458 0.255,1.174 0.112,1.796 -0.215,2.305 -0.869,3.317 -2.039,3.558 -2.05,3.56 l -0.022,0.002 0.073,0.365 0.02,-0.004 C -1.925,3.912 -0.643,3.649 0.093,2.51 0.15,2.418 0.191,2.347 0.227,2.279 0.539,1.685 0.649,0.975 0.555,0.169 0.688,0.324 0.827,0.494 0.97,0.676 0.978,0.686 0.983,0.692 0.984,0.693 L 0.996,0.707 1.289,0.482 1.276,0.466 C 1.274,0.463 1.034,0.153 0.751,-0.167 0.748,-0.171 0.746,-0.175 0.741,-0.18 L 0.266,-0.696 0.005,-0.015 C 0.004,-0.012 0.002,-0.005 0,0"
       style="fill:#ffffff;fill-opacity:1;fill-rule:nonzero;stroke:none"
       transform="matrix(0.35277776,0,0,-0.35277776,128.49956,174.45165)"
       clip-path="url(#clipPath2043)" />
    <path
       id="path2044"
       d="M 0,0 C -0.75,-0.394 -1.681,-0.104 -2.075,0.646 -2.466,1.394 -2.177,2.324 -1.427,2.718 -0.678,3.112 0.251,2.821 0.644,2.073 1.038,1.323 0.749,0.393 0,0 m -2.038,3.881 c -1.391,-0.729 -1.93,-2.455 -1.2,-3.846 0.732,-1.393 2.457,-1.929 3.848,-1.199 1.391,0.73 1.931,2.455 1.199,3.848 -0.73,1.391 -2.456,1.928 -3.847,1.197"
       style="fill:#ffffff;fill-opacity:1;fill-rule:nonzero;stroke:none"
       transform="matrix(0.35277776,0,0,-0.35277776,123.4873,177.12235)"
       clip-path="url(#clipPath2045)" />
    <path
       id="path2046"
       d="M 0,0 C 1.19,-2.267 0.314,-5.079 -1.952,-6.268 -4.219,-7.459 -7.03,-6.581 -8.219,-4.315 -9.408,-2.05 -8.533,0.762 -6.267,1.952 -4.002,3.141 -1.189,2.265 0,0 m -10.349,-11.182 c 0.753,1.626 0.769,3.572 -0.125,5.277 -0.948,1.806 -2.7,2.924 -4.587,3.145 l 5.553,3.109 c -0.754,-1.625 -0.771,-3.571 0.123,-5.275 0.949,-1.808 2.701,-2.925 4.59,-3.147 z m -3.241,-1.601 c -2.267,-1.191 -5.078,-0.313 -6.267,1.953 -1.189,2.265 -0.314,5.077 1.952,6.267 2.265,1.189 5.078,0.313 6.267,-1.952 1.19,-2.267 0.314,-5.079 -1.952,-6.268 M -6.878,3.115 C -6.908,3.1 -6.937,3.082 -6.967,3.066 l -0.001,0.002 -17.509,-9.802 0.553,-0.987 2.778,1.555 c -0.754,-1.625 -0.771,-3.571 0.124,-5.275 0.949,-1.807 2.7,-2.925 4.589,-3.147 l -2.777,-1.554 0.538,-0.961 17.959,10.053 c 2.434,1.687 3.287,4.972 1.877,7.66 -1.527,2.907 -5.133,4.032 -8.042,2.505"
       style="fill:#ffffff;fill-opacity:1;fill-rule:nonzero;stroke:none"
       transform="matrix(0.35277776,0,0,-0.35277776,128.79087,173.58318)"
       clip-path="url(#clipPath2047)" />
    <path
       id="path2048"
       d="M 0,0 C 0.749,0.394 1.68,0.104 2.074,-0.647 2.466,-1.394 2.176,-2.325 1.427,-2.718 0.677,-3.112 -0.252,-2.822 -0.644,-2.073 -1.039,-1.324 -0.75,-0.393 0,0 m 2.037,-3.882 c 1.391,0.73 1.93,2.456 1.2,3.846 -0.731,1.394 -2.457,1.93 -3.848,1.199 -1.391,-0.73 -1.931,-2.455 -1.199,-3.848 0.73,-1.39 2.456,-1.927 3.847,-1.197"
       style="fill:#ffffff;fill-opacity:1;fill-rule:nonzero;stroke:none"
       transform="matrix(0.35277776,0,0,-0.35277776,111.12173,182.79202)"
       clip-path="url(#clipPath2049)" />
    <path
       id="path2050"
       d="M 0,0 C 0.074,-0.206 0.172,-0.405 0.24,-0.536 0.288,-0.628 0.341,-0.721 0.384,-0.79 l 0.01,-0.018 -0.312,-0.195 -0.011,0.016 c -0.006,0.01 -0.074,0.119 -0.163,0.29 -0.04,0.076 -0.08,0.157 -0.118,0.239 -0.045,-0.716 0.098,-1.338 0.425,-1.847 0.654,-1.012 1.824,-1.253 1.835,-1.255 l 0.022,-0.002 -0.073,-0.365 -0.02,0.004 c -0.054,0.011 -1.336,0.274 -2.072,1.413 -0.057,0.092 -0.098,0.163 -0.134,0.231 -0.312,0.594 -0.422,1.304 -0.328,2.11 -0.133,-0.155 -0.272,-0.325 -0.415,-0.507 -0.008,-0.01 -0.013,-0.016 -0.014,-0.017 l -0.012,-0.014 -0.293,0.225 0.013,0.016 c 0.002,0.003 0.242,0.313 0.525,0.633 0.003,0.004 0.005,0.008 0.01,0.013 l 0.475,0.516 0.261,-0.681 C -0.004,0.012 -0.002,0.005 0,0"
       style="fill:#ffffff;fill-opacity:1;fill-rule:nonzero;stroke:none"
       transform="matrix(0.35277776,0,0,-0.35277776,110.215,183.16455)"
       clip-path="url(#clipPath2051)" />
    <path
       id="path2052"
       d="M 0,0 C 0.75,0.394 1.681,0.104 2.075,-0.646 2.466,-1.394 2.177,-2.324 1.427,-2.718 0.678,-3.112 -0.251,-2.821 -0.644,-2.073 -1.038,-1.323 -0.749,-0.393 0,0 m 2.038,-3.881 c 1.391,0.729 1.93,2.455 1.2,3.846 -0.732,1.393 -2.457,1.929 -3.848,1.199 -1.391,-0.73 -1.931,-2.455 -1.199,-3.848 0.73,-1.391 2.456,-1.928 3.847,-1.197"
       style="fill:#ffffff;fill-opacity:1;fill-rule:nonzero;stroke:none"
       transform="matrix(0.35277776,0,0,-0.35277776,115.22701,180.49385)"
       clip-path="url(#clipPath2053)" />
    <path
       id="path2054"
       d="M 0,0 C -1.19,2.267 -0.314,5.079 1.952,6.268 4.219,7.459 7.03,6.581 8.219,4.315 9.408,2.05 8.533,-0.762 6.267,-1.952 4.002,-3.141 1.189,-2.265 0,0 M 10.349,11.182 C 9.596,9.556 9.58,7.61 10.474,5.905 11.422,4.099 13.174,2.981 15.061,2.76 L 9.508,-0.349 C 10.262,1.276 10.279,3.222 9.385,4.926 8.436,6.734 6.684,7.851 4.795,8.073 Z m 3.241,1.601 c 2.267,1.191 5.078,0.313 6.267,-1.953 C 21.046,8.565 20.171,5.753 17.905,4.563 15.64,3.374 12.827,4.25 11.638,6.515 c -1.19,2.267 -0.314,5.079 1.952,6.268 M 6.878,-3.115 c 0.03,0.015 0.059,0.033 0.089,0.049 L 6.968,-3.068 24.477,6.734 23.924,7.721 21.146,6.166 c 0.754,1.625 0.771,3.571 -0.124,5.275 -0.949,1.807 -2.7,2.925 -4.589,3.147 L 19.21,16.142 18.672,17.103 0.713,7.05 C -1.721,5.363 -2.574,2.078 -1.164,-0.61 0.363,-3.517 3.969,-4.642 6.878,-3.115"
       style="fill:#ffffff;fill-opacity:1;fill-rule:nonzero;stroke:none"
       transform="matrix(0.35277776,0,0,-0.35277776,109.9237,184.03302)"
       clip-path="url(#clipPath2055)" />
    <path
       id="path2056"
       d="M 0,0 C 0.75,0.394 1.681,0.104 2.075,-0.646 2.466,-1.394 2.177,-2.324 1.427,-2.718 0.678,-3.112 -0.251,-2.821 -0.644,-2.073 -1.038,-1.323 -0.749,-0.393 0,0 m 2.038,-3.881 c 1.391,0.729 1.93,2.455 1.2,3.846 -0.732,1.393 -2.457,1.929 -3.848,1.199 -1.391,-0.73 -1.931,-2.455 -1.199,-3.848 0.73,-1.391 2.456,-1.928 3.847,-1.197"
       style="fill:#ffffff;fill-opacity:1;fill-rule:nonzero;stroke:none"
       transform="matrix(0.35277776,0,0,-0.35277776,119.14813,178.29883)"
       clip-path="url(#clipPath2057)" />
    <path
       id="path2058"
       d="m 0,0 c 1.189,-2.265 0.314,-5.077 -1.952,-6.267 -2.265,-1.189 -5.078,-0.314 -6.267,1.952 -1.19,2.267 -0.314,5.079 1.951,6.268 C -4,3.143 -1.19,2.266 0,0 m -1.185,6.273 -11.732,-6.567 c 0.178,-0.323 0.348,-0.649 0.518,-0.973 l 2.891,1.619 c -0.753,-1.627 -0.77,-3.572 0.125,-5.277 0.949,-1.807 2.7,-2.924 4.587,-3.146 l -3.599,-2.015 c 0.146,-0.35 0.293,-0.7 0.44,-1.051 L 4.62,-4.097 4.067,-3.109 1.289,-4.664 c 0.753,1.625 0.771,3.571 -0.124,5.274 -0.949,1.808 -2.7,2.925 -4.589,3.147 l 2.777,1.555 z"
       style="fill:#ffffff;fill-opacity:1;fill-rule:nonzero;stroke:none"
       transform="matrix(0.35277776,0,0,-0.35277776,120.84967,178.01728)"
       clip-path="url(#clipPath2059)" />
    <path
       id="path2060"
       d="m 97.743,181.708 h -2.164 v 7.041 h 2.164 z"
       style="fill:#ffffff;fill-opacity:1;fill-rule:nonzero;stroke:none"
       transform="matrix(0.35277776,0,0,-0.35277776,80.755502,250.01227)"
       clip-path="url(#clipPath2061)" />
    <path
       id="path2062"
       d="m 129.576,181.708 h -2.164 v 24.478 h 2.164 z"
       style="fill:#ffffff;fill-opacity:1;fill-rule:nonzero;stroke:none"
       transform="matrix(0.35277776,0,0,-0.35277776,80.755502,250.01227)"
       clip-path="url(#clipPath2063)" />
    <path
       id="path2064"
       d="M 0,0 -2.631,-1.519 -4.43,1.597 -2.004,1.669 Z"
       style="fill:#ffffff;fill-opacity:1;fill-rule:nonzero;stroke:none"
       transform="matrix(0.35277776,0,0,-0.35277776,111.32334,180.48535)"
       clip-path="url(#clipPath2065)" />
    <path
       id="path2066"
       d="m 0,0 -2.485,-1.435 c -0.04,-0.023 -0.092,-0.009 -0.115,0.031 l -0.432,2.245 c -0.024,0.04 -1.292,0.818 -1.252,0.841 l 2.485,1.434 c 0.04,0.024 0.092,0.01 0.115,-0.031 L 0.031,0.116 C 0.054,0.075 0.04,0.023 0,0"
       style="fill:#ffffff;fill-opacity:1;fill-rule:nonzero;stroke:none"
       transform="matrix(0.35277776,0,0,-0.35277776,112.98466,179.56728)"
       clip-path="url(#clipPath2067)" />
    <path
       id="path2068"
       d="m 0,0 -2.485,-1.435 c -0.04,-0.023 -0.092,-0.009 -0.115,0.031 l -1.065,0.955 c -0.023,0.041 -0.659,2.108 -0.619,2.131 l 2.485,1.434 c 0.04,0.024 0.092,0.01 0.115,-0.031 L 0.031,0.116 C 0.054,0.075 0.04,0.023 0,0"
       style="fill:#ffffff;fill-opacity:1;fill-rule:nonzero;stroke:none"
       transform="matrix(0.35277776,0,0,-0.35277776,114.18164,178.87626)"
       clip-path="url(#clipPath2069)" />
    <path
       id="path2070"
       d="m 0,0 -2.485,-1.435 c -0.04,-0.023 -0.092,-0.009 -0.115,0.031 l -1.715,2.97 c -0.023,0.041 2.133,-0.333 2.173,-0.31 l 0.343,1.86 c 0.04,0.024 0.092,0.01 0.115,-0.031 L 0.031,0.116 C 0.054,0.075 0.04,0.023 0,0"
       style="fill:#ffffff;fill-opacity:1;fill-rule:nonzero;stroke:none"
       transform="matrix(0.35277776,0,0,-0.35277776,117.00527,177.20494)"
       clip-path="url(#clipPath2071)" />
    <path
       id="path2072"
       d="m 0,0 -2.485,-1.435 c -0.04,-0.023 -0.092,-0.009 -0.115,0.031 l 0.102,2.657 c -0.024,0.04 -1.826,0.406 -1.786,0.429 l 2.485,1.434 c 0.04,0.024 0.092,0.01 0.115,-0.031 L 0.031,0.116 C 0.054,0.075 0.04,0.023 0,0"
       style="fill:#ffffff;fill-opacity:1;fill-rule:nonzero;stroke:none"
       transform="matrix(0.35277776,0,0,-0.35277776,120.63535,174.99376)"
       clip-path="url(#clipPath2073)" />
    <path
       id="path2074"
       d="m 0,0 -2.485,-1.435 c -0.04,-0.023 -0.092,-0.009 -1.857,-0.811 l -1.715,2.97 c 1.719,0.883 2.171,-0.06 2.212,-0.037 l 2.046,2.429 c 0.04,0.024 0.092,0.01 0.115,-0.031 L 0.031,0.116 C 0.054,0.075 0.04,0.023 0,0"
       style="fill:#ffffff;fill-opacity:1;fill-rule:nonzero;stroke:none"
       transform="matrix(0.35277776,0,0,-0.35277776,123.58652,173.4463)"
       clip-path="url(#clipPath2075)" />
  </g>
</svg>
