<?xml version="1.0" encoding="UTF-8" standalone="no"?>
<!-- Created with Inkscape (http://www.inkscape.org/) -->

<svg
   width="11.074752mm"
   height="17.811752mm"
   viewBox="0 0 11.074752 17.811752"
   version="1.1"
   id="svg1"
   xmlns:inkscape="http://www.inkscape.org/namespaces/inkscape"
   xmlns:sodipodi="http://sodipodi.sourceforge.net/DTD/sodipodi-0.dtd"
   xmlns="http://www.w3.org/2000/svg"
   xmlns:svg="http://www.w3.org/2000/svg">
  <sodipodi:namedview
     id="namedview1"
     pagecolor="#ffffff"
     bordercolor="#111111"
     borderopacity="1"
     inkscape:showpageshadow="0"
     inkscape:pageopacity="0"
     inkscape:pagecheckerboard="1"
     inkscape:deskcolor="#d1d1d1"
     inkscape:document-units="mm"
     inkscape:export-bgcolor="#ffffff00">
    <inkscape:page
       x="0"
       y="0"
       width="11.074752"
       height="17.811752"
       id="page2"
       margin="0"
       bleed="0" />
  </sodipodi:namedview>
  <defs
     id="defs1">
    <clipPath
       clipPathUnits="userSpaceOnUse"
       id="clipPath2105">
      <path
         d="M 0,595.276 H 595.276 V 0 H 0 Z"
         transform="translate(-467.88886,-179.2637)"
         id="path2105" />
    </clipPath>
    <clipPath
       clipPathUnits="userSpaceOnUse"
       id="clipPath2107">
      <path
         d="M 0,595.276 H 595.276 V 0 H 0 Z"
         transform="translate(-453.94561,-199.18051)"
         id="path2107" />
    </clipPath>
    <clipPath
       clipPathUnits="userSpaceOnUse"
       id="clipPath2109">
      <path
         d="M 0,595.276 H 595.276 V 0 H 0 Z"
         transform="translate(-459.80011,-198.6929)"
         id="path2109" />
    </clipPath>
    <clipPath
       clipPathUnits="userSpaceOnUse"
       id="clipPath2111">
      <path
         d="M 0,595.276 H 595.276 V 0 H 0 Z"
         transform="translate(-463.40686,-196.1716)"
         id="path2111" />
    </clipPath>
  </defs>
  <g
     inkscape:label="Layer 1"
     inkscape:groupmode="layer"
     id="layer1"
     transform="translate(-63.108257,-161.65428)">
    <path
       id="path2104"
       d="m 0,0 0.03,2.097 -17.513,10e-4 c -0.109,-0.718 -0.113,-1.369 -0.019,-2.104 z m 0.204,3.835 c 2.68,-0.002 4.836,2.054 4.94,4.601 0.051,1.237 0.025,2.374 0.002,3.603 L -22.701,12.033 -22.718,8.689 C -22.732,6.14 -20.616,3.852 -17.929,3.85 Z M 5.165,13.767 5.177,28.368 -22.719,28.367 -22.73,13.774 Z M 5.154,30.088 5.158,33.51 c 0.003,2.651 -2.261,4.751 -4.908,4.749 l -18.139,-0.01 c -2.687,-0.001 -4.797,-2.193 -4.833,-4.796 -0.017,-1.181 0.008,-2.236 0.069,-3.368 z M 1.561,40.1 1.541,46.971 c -0.446,0.007 -0.955,-0.015 -1.26,-0.06 l 0.006,-6.843 z m -7.063,4.231 c 0.658,0 1.051,-0.482 0.973,-0.961 -0.051,-0.311 -0.523,-0.76 -0.83,-0.765 l -2.517,-0.039 -0.029,-2.537 6.444,0.002 -0.047,7.007 -14.502,-0.025 0.004,-6.99 6.331,0.01 0.02,2.544 -2.386,0.022 c -0.546,0.005 -1.064,0.424 -1.005,0.944 0.049,0.422 0.527,0.789 0.998,0.789 z m -12.228,-4.236 -0.008,6.928 -1.36,-0.108 0.007,-6.715 c 0.296,-0.179 0.942,-0.193 1.361,-0.105 M 1.001,-1.725 -18.584,-1.729 c -0.259,0 -0.71,0.453 -0.717,0.681 l -0.107,3.321 c -2.855,0.808 -5.046,3.162 -5.046,6.212 l -0.004,25.183 c 0,2.452 1.507,4.43 3.594,5.599 l 0.034,8.617 c 0.002,0.346 0.389,0.875 0.783,0.875 l 22.456,0.002 c 0.576,0 0.873,-0.546 0.873,-1.045 L 3.284,39.297 C 5.726,37.989 6.937,35.71 6.935,33.039 L 6.925,8.901 C 6.924,5.691 4.924,3.084 1.815,2.284 L 1.779,-0.886 C 1.777,-1.123 1.404,-1.725 1.001,-1.725"
       style="fill:#ffffff;fill-opacity:1;fill-rule:nonzero;stroke:none"
       transform="matrix(0.35277776,0,0,-0.35277776,71.736498,178.85608)"
       clip-path="url(#clipPath2105)" />
    <path
       id="path2106"
       d="m 0,0 -0.678,0.74 c -0.15,0.163 0.059,0.947 0.276,0.941 L 1.426,1.636 1.378,-1.777 c -0.016,-1.167 -0.912,-1.82 -1.988,-1.902 -1.115,-0.086 -2.326,0.492 -2.332,1.792 l -0.026,5.895 c -0.005,1.264 1.017,1.931 2.145,1.96 C 0.55,6.004 1.407,5.005 1.404,3.743 1.403,3.48 1.567,2.773 1.334,2.752 L 0.289,2.661 C -0.332,2.607 0.499,4.095 -0.589,4.581 -0.901,4.72 -1.514,4.244 -1.515,3.849 l -0.014,-5.404 c -0.001,-0.337 0.485,-0.787 0.801,-0.768 0.281,0.017 0.765,0.48 0.759,0.783 z"
       style="fill:#ffffff;fill-opacity:1;fill-rule:nonzero;stroke:none"
       transform="matrix(0.35277776,0,0,-0.35277776,66.817628,171.82988)"
       clip-path="url(#clipPath2107)" />
    <path
       id="path2108"
       d="m 0,0 -0.732,4.096 -0.702,-4.147 z m 0.188,-1.441 -1.753,0.02 -0.339,-1.462 c -0.068,-0.295 -0.913,-0.209 -1.311,-0.094 l 1.483,9.271 2.178,0.021 1.486,-9.281 -1.45,-0.115 z"
       style="fill:#ffffff;fill-opacity:1;fill-rule:nonzero;stroke:none"
       transform="matrix(0.35277776,0,0,-0.35277776,68.882968,172.00189)"
       clip-path="url(#clipPath2109)" />
    <path
       id="path2110"
       d="M 0,0 C -0.588,0.653 -0.634,1.688 -0.423,2.306 L 0.74,2.239 C 0.958,2.227 0.857,1.552 0.918,1.244 0.966,1.004 1.468,0.679 1.706,0.675 1.985,0.671 2.422,1.2 2.4,1.53 2.267,3.607 -0.307,3.856 -0.501,6.374 -0.622,7.953 0.272,8.978 1.712,8.984 3.046,8.99 4.063,7.912 3.816,6.431 3.467,6.206 2.603,6.191 2.507,6.524 2.395,6.911 2.278,7.319 2.14,7.466 1.974,7.643 1.466,7.595 1.268,7.456 0.164,6.682 1.914,4.913 2.647,4.265 3.865,3.188 4.42,1.354 3.313,-0.008 2.576,-0.914 0.834,-0.925 0,0"
       style="fill:#ffffff;fill-opacity:1;fill-rule:nonzero;stroke:none"
       transform="matrix(0.35277776,0,0,-0.35277776,70.155348,172.89135)"
       clip-path="url(#clipPath2111)" />
  </g>
</svg>
