<?xml version="1.0" encoding="UTF-8" standalone="no"?>
<!-- Created with Inkscape (http://www.inkscape.org/) -->

<svg
   width="16.193203mm"
   height="17.568356mm"
   viewBox="0 0 16.193203 17.568356"
   version="1.1"
   id="svg1"
   xmlns:inkscape="http://www.inkscape.org/namespaces/inkscape"
   xmlns:sodipodi="http://sodipodi.sourceforge.net/DTD/sodipodi-0.dtd"
   xmlns="http://www.w3.org/2000/svg"
   xmlns:svg="http://www.w3.org/2000/svg">
  <sodipodi:namedview
     id="namedview1"
     pagecolor="#ffffff"
     bordercolor="#111111"
     borderopacity="1"
     inkscape:showpageshadow="0"
     inkscape:pageopacity="0"
     inkscape:pagecheckerboard="1"
     inkscape:deskcolor="#d1d1d1"
     inkscape:document-units="mm"
     inkscape:export-bgcolor="#ffffff00">
    <inkscape:page
       x="0"
       y="0"
       width="16.193203"
       height="17.568356"
       id="page2"
       margin="0"
       bleed="0" />
  </sodipodi:namedview>
  <defs
     id="defs1">
    <clipPath
       clipPathUnits="userSpaceOnUse"
       id="clipPath2250">
      <path
         d="M 0,595.276 H 595.276 V 0 H 0 Z"
         transform="translate(-465.03881,-304.95071)"
         id="path2250" />
    </clipPath>
    <clipPath
       clipPathUnits="userSpaceOnUse"
       id="clipPath2252">
      <path
         d="M 0,595.276 H 595.276 V 0 H 0 Z"
         transform="translate(-473.87756,-335.20611)"
         id="path2252" />
    </clipPath>
    <clipPath
       clipPathUnits="userSpaceOnUse"
       id="clipPath2254">
      <path
         d="M 0,595.276 H 595.276 V 0 H 0 Z"
         transform="translate(-470.49806,-325.38281)"
         id="path2254" />
    </clipPath>
    <clipPath
       clipPathUnits="userSpaceOnUse"
       id="clipPath2256">
      <path
         d="M 0,595.276 H 595.276 V 0 H 0 Z"
         transform="translate(-470.49881,-319.15561)"
         id="path2256" />
    </clipPath>
    <clipPath
       clipPathUnits="userSpaceOnUse"
       id="clipPath2258">
      <path
         d="M 0,595.276 H 595.276 V 0 H 0 Z"
         transform="translate(-470.50106,-316.05071)"
         id="path2258" />
    </clipPath>
    <clipPath
       clipPathUnits="userSpaceOnUse"
       id="clipPath2260">
      <path
         d="M 0,595.276 H 595.276 V 0 H 0 Z"
         transform="translate(-470.50031,-322.27301)"
         id="path2260" />
    </clipPath>
    <clipPath
       clipPathUnits="userSpaceOnUse"
       id="clipPath2262">
      <path
         d="M 0,595.276 H 595.276 V 0 H 0 Z"
         transform="translate(-478.28231,-322.27721)"
         id="path2262" />
    </clipPath>
    <clipPath
       clipPathUnits="userSpaceOnUse"
       id="clipPath2264">
      <path
         d="M 0,595.276 H 595.276 V 0 H 0 Z"
         transform="translate(-481.39631,-322.27551)"
         id="path2264" />
    </clipPath>
    <clipPath
       clipPathUnits="userSpaceOnUse"
       id="clipPath2266">
      <path
         d="M 0,595.276 H 595.276 V 0 H 0 Z"
         transform="translate(-460.18706,-305.90431)"
         id="path2266" />
    </clipPath>
  </defs>
  <g
     inkscape:label="Layer 1"
     inkscape:groupmode="layer"
     id="layer1"
     transform="translate(-33.485817,-214.37702)">
    <path
       id="path2249"
       d="M 0,0 C 0.134,2.839 -2.29,5.08 -5.032,4.852 -7.8,4.623 -9.798,2.023 -9.217,-0.733 c 0.489,-2.32 2.621,-3.912 4.97,-3.705 C -1.972,-4.237 -0.113,-2.377 0,0 m 21.789,4.867 0.007,3.116 H 16.358 L 16.352,6.433 14.798,6.432 14.786,7.982 13.248,7.981 13.235,6.431 11.684,6.433 11.674,7.982 H -3.872 L -3.876,6.387 C -0.787,5.98 1.563,3.385 1.576,0.209 h 20.22 L 21.793,3.316 12.474,3.317 12.461,1.765 3.12,1.766 l 10e-4,1.558 7.774,0.002 0.01,1.542 z m -6.995,4.68 -0.004,1.549 -1.548,-0.005 0.003,-1.552 z M 11.687,9.548 11.67,11.092 H 8.575 L 8.578,9.541 Z m 14.776,3.91 v 6.232 c -0.046,0.451 -0.38,0.746 -0.825,0.745 l -2.284,-0.007 0.001,-7.767 2.175,-0.01 c 0.494,-0.002 0.919,0.243 0.933,0.807 m -4.668,-0.791 10e-4,7.763 h -2.33 l 10e-4,-7.774 z m -7.005,-0.011 0.006,1.55 1.554,0.003 0.013,-1.555 1.538,0.009 0.001,7.77 -9.327,-0.003 v -7.773 l 3.101,10e-4 0.011,1.552 1.555,-0.004 0.004,-1.547 z M -6.989,12.276 -6.99,20.818 -8.545,20.817 V 12.281 Z M 16.352,11.08 16.361,9.544 23.355,9.542 23.354,0.21 l 5.4,-0.002 c 0.476,0.002 0.829,0.343 0.814,0.836 L 29.565,23.542 8.581,23.545 v -1.549 l 17.252,-0.015 c 1.161,-0.001 2.174,-1.058 2.174,-2.192 l -0.002,-6.488 c 0,-1.216 -1.071,-2.203 -2.265,-2.204 L 20.219,11.095 Z M 7.013,9.548 7.012,23.545 l -9.326,-0.001 -10e-4,-14 z m -14.004,1.157 -3.114,10e-4 v 11.679 l 3.109,0.003 0.007,1.157 -4.66,-0.003 10e-4,-22.55 c 0.004,-0.444 0.327,-0.761 0.764,-0.769 0.018,3.153 2.354,5.76 5.448,6.16 l 0.001,1.598 -1.554,0.003 z m 3.108,-1.14 -10e-4,13.974 -1.545,0.013 V 9.543 Z m 34.23,19.414 -10.44,0.006 -4.697,-10e-4 C 11.935,25.886 6.781,25.873 3.488,28.983 L -1.455,28.98 -12.431,28.977 v -3.869 l 42.783,-0.001 z m -1.552,1.571 -0.001,4.666 H 17.913 C 17.904,33.561 17.446,31.988 16.53,30.555 Z m -26.63,0.005 c -0.919,1.457 -1.377,3.013 -1.377,4.661 h -11.663 l 10e-4,-4.665 z M 8.73,28.25 c 3.354,-0.3 6.406,1.834 7.341,5.043 0.615,2.109 0.19,4.367 -1.166,6.162 -1.211,1.604 -3.142,2.667 -5.258,2.754 C 7.532,42.296 5.517,41.423 4.144,39.881 2.725,38.285 2.087,36.153 2.453,34.042 2.993,30.928 5.555,28.534 8.73,28.25 m 16.954,-34.269 -0.005,4.67 H 1.369 c -0.725,-2.772 -3.221,-4.676 -6.03,-4.671 -2.823,0.004 -5.284,1.91 -6.024,4.671 -1.313,-0.091 -2.524,0.917 -2.525,2.254 l -0.01,22.611 -0.772,0.042 v 6.993 l 1.556,0.008 10e-4,6.215 13.361,-0.004 c 0.759,4.043 4.285,6.993 8.383,7.01 4.119,0.018 7.698,-2.924 8.459,-7.008 l 12.584,0.003 0.006,-6.217 1.552,-0.007 v -6.994 l -0.772,-0.018 0.008,-22.39 c 0,-1.461 -1.047,-2.521 -2.55,-2.506 l -1.271,0.013 C 27.309,-1.36 27.257,-1.431 27.24,-1.457 l 0.003,-4.554 z"
       style="fill:#ffffff;fill-opacity:1;fill-rule:nonzero;stroke:none"
       transform="matrix(0.35277776,0,0,-0.35277776,38.421884,229.82165)"
       clip-path="url(#clipPath2250)" />
    <path
       id="path2251"
       d="M 0,0 -1.342,0.802 0.679,4.173 -2.424,4.182 1.015,9.921 2.358,9.12 0.341,5.743 3.44,5.733 Z"
       style="fill:#ffffff;fill-opacity:1;fill-rule:nonzero;stroke:none"
       transform="matrix(0.35277776,0,0,-0.35277776,41.540004,219.14822)"
       clip-path="url(#clipPath2252)" />
    <path
       id="path2253"
       d="M 0,0 -6.226,0.001 -6.225,1.562 0.002,1.561 Z"
       style="fill:#ffffff;fill-opacity:1;fill-rule:nonzero;stroke:none"
       transform="matrix(0.35277776,0,0,-0.35277776,40.347794,222.61366)"
       clip-path="url(#clipPath2254)" />
    <path
       id="path2255"
       d="M 0,0 -6.225,-0.002 -6.227,1.567 0,1.566 Z"
       style="fill:#ffffff;fill-opacity:1;fill-rule:nonzero;stroke:none"
       transform="matrix(0.35277776,0,0,-0.35277776,40.348054,224.81047)"
       clip-path="url(#clipPath2256)" />
    <path
       id="path2257"
       d="m 0,0 -4.776,-0.004 -1.453,0.002 -0.001,1.559 h 6.224 z"
       style="fill:#ffffff;fill-opacity:1;fill-rule:nonzero;stroke:none"
       transform="matrix(0.35277776,0,0,-0.35277776,40.348844,225.90581)"
       clip-path="url(#clipPath2258)" />
    <path
       id="path2259"
       d="M 0,0 -6.217,-0.003 -6.228,1.565 -0.004,1.564 Z"
       style="fill:#ffffff;fill-opacity:1;fill-rule:nonzero;stroke:none"
       transform="matrix(0.35277776,0,0,-0.35277776,40.348584,223.71073)"
       clip-path="url(#clipPath2260)" />
    <path
       id="path2261"
       d="M 0,0 -1.558,-0.009 -1.566,1.558 -0.005,1.56 Z"
       style="fill:#ffffff;fill-opacity:1;fill-rule:nonzero;stroke:none"
       transform="matrix(0.35277776,0,0,-0.35277776,43.093904,223.70924)"
       clip-path="url(#clipPath2262)" />
    <path
       id="path2263"
       d="m 0,0 -1.557,-0.007 -0.01,1.568 h 1.562 z"
       style="fill:#ffffff;fill-opacity:1;fill-rule:nonzero;stroke:none"
       transform="matrix(0.35277776,0,0,-0.35277776,44.192454,223.70984)"
       clip-path="url(#clipPath2264)" />
    <path
       id="path2265"
       d="m 0,0 c -0.457,-0.117 -0.668,-0.585 -0.54,-0.975 0.13,-0.398 0.53,-0.62 0.932,-0.518 0.407,0.103 0.659,0.534 0.552,0.946 C 0.843,-0.162 0.443,0.114 0,0 M -0.318,1.528 C 0.989,1.821 2.213,0.995 2.484,-0.267 2.749,-1.501 1.953,-2.75 0.699,-3.028 c -1.225,-0.272 -2.463,0.493 -2.768,1.713 -0.312,1.251 0.434,2.548 1.751,2.843"
       style="fill:#ffffff;fill-opacity:1;fill-rule:nonzero;stroke:none"
       transform="matrix(0.35277776,0,0,-0.35277776,36.710294,229.48524)"
       clip-path="url(#clipPath2266)" />
  </g>
</svg>
