<?xml version="1.0" encoding="UTF-8" standalone="no"?>
<!-- Created with Inkscape (http://www.inkscape.org/) -->

<svg
   width="38.125038mm"
   height="20.60433mm"
   viewBox="0 0 38.125038 20.60433"
   version="1.1"
   id="svg1"
   xmlns:inkscape="http://www.inkscape.org/namespaces/inkscape"
   xmlns:sodipodi="http://sodipodi.sourceforge.net/DTD/sodipodi-0.dtd"
   xmlns="http://www.w3.org/2000/svg"
   xmlns:svg="http://www.w3.org/2000/svg">
  <sodipodi:namedview
     id="namedview1"
     pagecolor="#ffffff"
     bordercolor="#111111"
     borderopacity="1"
     inkscape:showpageshadow="0"
     inkscape:pageopacity="0"
     inkscape:pagecheckerboard="1"
     inkscape:deskcolor="#d1d1d1"
     inkscape:document-units="mm"
     inkscape:export-bgcolor="#ffffff00">
    <inkscape:page
       x="0"
       y="0"
       width="38.125038"
       height="20.60433"
       id="page2"
       margin="0"
       bleed="0" />
  </sodipodi:namedview>
  <defs
     id="defs1">
    <clipPath
       clipPathUnits="userSpaceOnUse"
       id="clipPath2657">
      <path
         d="M 0,595.276 H 595.276 V 0 H 0 Z"
         transform="translate(-3.5000002e-4)"
         id="path2657" />
    </clipPath>
    <clipPath
       clipPathUnits="userSpaceOnUse"
       id="clipPath2659">
      <path
         d="M 0,595.276 H 595.276 V 0 H 0 Z"
         transform="translate(-3.5000002e-4)"
         id="path2659" />
    </clipPath>
    <clipPath
       clipPathUnits="userSpaceOnUse"
       id="clipPath2661">
      <path
         d="M 0,595.276 H 595.276 V 0 H 0 Z"
         transform="translate(-3.5000002e-4)"
         id="path2661" />
    </clipPath>
    <clipPath
       clipPathUnits="userSpaceOnUse"
       id="clipPath2663">
      <path
         d="M 0,595.276 H 595.276 V 0 H 0 Z"
         transform="translate(-3.5000002e-4)"
         id="path2663" />
    </clipPath>
    <clipPath
       clipPathUnits="userSpaceOnUse"
       id="clipPath2665">
      <path
         d="M 0,595.276 H 595.276 V 0 H 0 Z"
         transform="translate(-3.5000002e-4)"
         id="path2665" />
    </clipPath>
    <clipPath
       clipPathUnits="userSpaceOnUse"
       id="clipPath2667">
      <path
         d="M 0,595.276 H 595.276 V 0 H 0 Z"
         transform="translate(-3.5000002e-4)"
         id="path2667" />
    </clipPath>
    <clipPath
       clipPathUnits="userSpaceOnUse"
       id="clipPath2669">
      <path
         d="M 0,595.276 H 595.276 V 0 H 0 Z"
         transform="translate(-3.5000002e-4)"
         id="path2669" />
    </clipPath>
    <clipPath
       clipPathUnits="userSpaceOnUse"
       id="clipPath2671">
      <path
         d="M 0,595.276 H 595.276 V 0 H 0 Z"
         transform="translate(-3.5000002e-4)"
         id="path2671" />
    </clipPath>
    <clipPath
       clipPathUnits="userSpaceOnUse"
       id="clipPath2673">
      <path
         d="M 0,595.276 H 595.276 V 0 H 0 Z"
         transform="translate(-3.5000002e-4)"
         id="path2673" />
    </clipPath>
    <clipPath
       clipPathUnits="userSpaceOnUse"
       id="clipPath2675">
      <path
         d="M 0,595.276 H 595.276 V 0 H 0 Z"
         transform="translate(-3.5000002e-4)"
         id="path2675" />
    </clipPath>
    <clipPath
       clipPathUnits="userSpaceOnUse"
       id="clipPath2677">
      <path
         d="M 0,595.276 H 595.276 V 0 H 0 Z"
         transform="translate(-3.5000002e-4)"
         id="path2677" />
    </clipPath>
  </defs>
  <g
     inkscape:label="Layer 1"
     inkscape:groupmode="layer"
     id="layer1"
     transform="translate(-135.03369,-248.79685)">
    <path
       id="path2656"
       d="M 442.107,376.676 H 334.838 v 57.604 h 107.269 z"
       style="fill:none;stroke:#ffffff;stroke-width:0.802;stroke-linecap:butt;stroke-linejoin:miter;stroke-miterlimit:10;stroke-dasharray:none;stroke-opacity:1"
       transform="matrix(0.35277776,0,0,-0.35277776,17.051755,402.14263)"
       clip-path="url(#clipPath2657)" />
    <path
       id="path2658"
       d="M 408.795,383.506 H 385.05 v 46.66 h 23.745 z"
       style="fill:none;stroke:#ffffff;stroke-width:0.802;stroke-linecap:butt;stroke-linejoin:miter;stroke-miterlimit:10;stroke-dasharray:none;stroke-opacity:1"
       transform="matrix(0.35277776,0,0,-0.35277776,17.051755,402.14263)"
       clip-path="url(#clipPath2659)" />
    <path
       id="path2660"
       d="m 376.34,383.506 h -23.745 v 46.66 h 23.745 z"
       style="fill:none;stroke:#ffffff;stroke-width:0.802;stroke-linecap:butt;stroke-linejoin:miter;stroke-miterlimit:10;stroke-dasharray:none;stroke-opacity:1"
       transform="matrix(0.35277776,0,0,-0.35277776,17.051755,402.14263)"
       clip-path="url(#clipPath2661)" />
    <path
       id="path2662"
       d="m 349.682,426.293 h -13.417 v 3.872 h 13.417 z"
       style="fill:none;stroke:#ffffff;stroke-width:0.802;stroke-linecap:butt;stroke-linejoin:miter;stroke-miterlimit:10;stroke-dasharray:none;stroke-opacity:1"
       transform="matrix(0.35277776,0,0,-0.35277776,17.051755,402.14263)"
       clip-path="url(#clipPath2663)" />
    <path
       id="path2664"
       d="m 349.682,421.37 h -13.417 v 3.872 h 13.417 z"
       style="fill:none;stroke:#ffffff;stroke-width:0.802;stroke-linecap:butt;stroke-linejoin:miter;stroke-miterlimit:10;stroke-dasharray:none;stroke-opacity:1"
       transform="matrix(0.35277776,0,0,-0.35277776,17.051755,402.14263)"
       clip-path="url(#clipPath2665)" />
    <path
       id="path2666"
       d="m 349.682,416.447 h -13.417 v 3.872 h 13.417 z"
       style="fill:none;stroke:#ffffff;stroke-width:0.802;stroke-linecap:butt;stroke-linejoin:miter;stroke-miterlimit:10;stroke-dasharray:none;stroke-opacity:1"
       transform="matrix(0.35277776,0,0,-0.35277776,17.051755,402.14263)"
       clip-path="url(#clipPath2667)" />
    <path
       id="path2668"
       d="m 349.682,411.523 h -13.417 v 3.872 h 13.417 z"
       style="fill:none;stroke:#ffffff;stroke-width:0.802;stroke-linecap:butt;stroke-linejoin:miter;stroke-miterlimit:10;stroke-dasharray:none;stroke-opacity:1"
       transform="matrix(0.35277776,0,0,-0.35277776,17.051755,402.14263)"
       clip-path="url(#clipPath2669)" />
    <path
       id="path2670"
       d="m 349.682,409.007 h -13.417 v 3.872 h 13.417 z"
       style="fill:none;stroke:#ffffff;stroke-width:0.802;stroke-linecap:butt;stroke-linejoin:miter;stroke-miterlimit:10;stroke-dasharray:none;stroke-opacity:1"
       transform="matrix(0.35277776,0,0,-0.35277776,17.051755,402.14263)"
       clip-path="url(#clipPath2671)" />
    <path
       id="path2672"
       d="m 349.682,404.084 h -13.417 v 3.872 h 13.417 z"
       style="fill:none;stroke:#ffffff;stroke-width:0.802;stroke-linecap:butt;stroke-linejoin:miter;stroke-miterlimit:10;stroke-dasharray:none;stroke-opacity:1"
       transform="matrix(0.35277776,0,0,-0.35277776,17.051755,402.14263)"
       clip-path="url(#clipPath2673)" />
    <path
       id="path2674"
       d="m 349.682,399.16 h -13.417 v 3.872 h 13.417 z"
       style="fill:none;stroke:#ffffff;stroke-width:0.802;stroke-linecap:butt;stroke-linejoin:miter;stroke-miterlimit:10;stroke-dasharray:none;stroke-opacity:1"
       transform="matrix(0.35277776,0,0,-0.35277776,17.051755,402.14263)"
       clip-path="url(#clipPath2675)" />
    <path
       id="path2676"
       d="m 349.682,394.237 h -13.417 v 3.872 h 13.417 z"
       style="fill:none;stroke:#ffffff;stroke-width:0.802;stroke-linecap:butt;stroke-linejoin:miter;stroke-miterlimit:10;stroke-dasharray:none;stroke-opacity:1"
       transform="matrix(0.35277776,0,0,-0.35277776,17.051755,402.14263)"
       clip-path="url(#clipPath2677)" />
  </g>
</svg>
