<?xml version="1.0" encoding="UTF-8" standalone="no"?>
<!-- Created with Inkscape (http://www.inkscape.org/) -->

<svg
   width="16.766823mm"
   height="12.81133mm"
   viewBox="0 0 16.766823 12.81133"
   version="1.1"
   id="svg1"
   xmlns:inkscape="http://www.inkscape.org/namespaces/inkscape"
   xmlns:sodipodi="http://sodipodi.sourceforge.net/DTD/sodipodi-0.dtd"
   xmlns="http://www.w3.org/2000/svg"
   xmlns:svg="http://www.w3.org/2000/svg">
  <sodipodi:namedview
     id="namedview1"
     pagecolor="#ffffff"
     bordercolor="#111111"
     borderopacity="1"
     inkscape:showpageshadow="0"
     inkscape:pageopacity="0"
     inkscape:pagecheckerboard="1"
     inkscape:deskcolor="#d1d1d1"
     inkscape:document-units="mm"
     inkscape:export-bgcolor="#ffffff00">
    <inkscape:page
       x="0"
       y="1.7486044e-15"
       width="16.766823"
       height="12.811331"
       id="page2"
       margin="0"
       bleed="0" />
  </sodipodi:namedview>
  <defs
     id="defs1">
    <clipPath
       clipPathUnits="userSpaceOnUse"
       id="clipPath2091">
      <path
         d="M 0,595.276 H 595.276 V 0 H 0 Z"
         transform="translate(-319.86511,-214.02371)"
         id="path2091" />
    </clipPath>
    <clipPath
       clipPathUnits="userSpaceOnUse"
       id="clipPath2093">
      <path
         d="M 0,595.276 H 595.276 V 0 H 0 Z"
         transform="translate(-323.82286,-196.226)"
         id="path2093" />
    </clipPath>
    <clipPath
       clipPathUnits="userSpaceOnUse"
       id="clipPath2095">
      <path
         d="M 0,595.276 H 595.276 V 0 H 0 Z"
         transform="translate(-357.46411,-201.19061)"
         id="path2095" />
    </clipPath>
    <clipPath
       clipPathUnits="userSpaceOnUse"
       id="clipPath2097">
      <path
         d="M 0,595.276 H 595.276 V 0 H 0 Z"
         transform="translate(-314.38711,-212.48861)"
         id="path2097" />
    </clipPath>
    <clipPath
       clipPathUnits="userSpaceOnUse"
       id="clipPath2099">
      <path
         d="M 0,595.276 H 595.276 V 0 H 0 Z"
         transform="translate(-319.86511,-196.226)"
         id="path2099" />
    </clipPath>
    <clipPath
       clipPathUnits="userSpaceOnUse"
       id="clipPath2101">
      <path
         d="M 0,595.276 H 595.276 V 0 H 0 Z"
         transform="translate(-338.66461,-215.6792)"
         id="path2101" />
    </clipPath>
    <clipPath
       clipPathUnits="userSpaceOnUse"
       id="clipPath2103">
      <path
         d="M 0,595.276 H 595.276 V 0 H 0 Z"
         transform="translate(-345.59086,-189.2936)"
         id="path2103" />
    </clipPath>
  </defs>
  <g
     inkscape:label="Layer 1"
     inkscape:groupmode="layer"
     id="layer1"
     transform="translate(-157.95621,-137.58334)">
    <path
       id="path2090"
       d="m 0,0 c 0,-2.742 -2.223,-4.965 -4.965,-4.965 -2.741,0 -4.964,2.223 -4.964,4.965 0,2.742 2.223,4.965 4.964,4.965 C -2.223,4.965 0,2.742 0,0"
       style="fill:#ffffff;fill-opacity:1;fill-rule:nonzero;stroke:none"
       transform="matrix(0.35277776,0,0,-0.35277776,161.45895,139.9189)"
       clip-path="url(#clipPath2091)" />
    <path
       id="path2092"
       d="m 0,0 c 0,-2.742 -2.223,-4.965 -4.965,-4.965 -2.741,0 -4.964,2.223 -4.964,4.965 0,2.742 2.223,4.965 4.964,4.965 C -2.223,4.965 0,2.742 0,0"
       style="fill:#ffffff;fill-opacity:1;fill-rule:nonzero;stroke:none"
       transform="matrix(0.35277776,0,0,-0.35277776,162.85516,146.19753)"
       clip-path="url(#clipPath2093)" />
    <path
       id="path2094"
       d="m 0,0 c 0,-2.742 -2.223,-4.965 -4.965,-4.965 -2.741,0 -4.964,2.223 -4.964,4.965 0,2.742 2.223,4.965 4.964,4.965 C -2.223,4.965 0,2.742 0,0"
       style="fill:#ffffff;fill-opacity:1;fill-rule:nonzero;stroke:none"
       transform="matrix(0.35277776,0,0,-0.35277776,174.72304,144.44613)"
       clip-path="url(#clipPath2095)" />
    <path
       id="path2096"
       d="m 0,0 4.471,-16.263 22.572,-7.893 12.704,12.858"
       style="fill:none;stroke:#ffffff;stroke-width:1.098;stroke-linecap:butt;stroke-linejoin:miter;stroke-miterlimit:10;stroke-dasharray:none;stroke-opacity:1"
       transform="matrix(0.35277776,0,0,-0.35277776,159.52644,140.46045)"
       clip-path="url(#clipPath2097)" />
    <path
       id="path2098"
       d="M 0,0 14.396,18.284"
       style="fill:none;stroke:#ffffff;stroke-width:1.098;stroke-linecap:butt;stroke-linejoin:miter;stroke-miterlimit:10;stroke-dasharray:none;stroke-opacity:1"
       transform="matrix(0.35277776,0,0,-0.35277776,161.45895,146.19753)"
       clip-path="url(#clipPath2099)" />
    <path
       id="path2100"
       d="m 0,0 c 0,-2.742 -2.223,-4.965 -4.965,-4.965 -2.741,0 -4.964,2.223 -4.964,4.965 0,2.742 2.223,4.965 4.964,4.965 C -2.223,4.965 0,2.742 0,0"
       style="fill:#ed1932;fill-opacity:1;fill-rule:nonzero;stroke:none"
       transform="matrix(0.35277776,0,0,-0.35277776,168.091,139.33488)"
       clip-path="url(#clipPath2101)" />
    <path
       id="path2102"
       d="m 0,0 c 0,-2.742 -2.223,-4.965 -4.965,-4.965 -2.741,0 -4.964,2.223 -4.964,4.965 0,2.742 2.223,4.965 4.964,4.965 C -2.223,4.965 0,2.742 0,0"
       style="fill:#ed1932;fill-opacity:1;fill-rule:nonzero;stroke:none"
       transform="matrix(0.35277776,0,0,-0.35277776,170.53443,148.64313)"
       clip-path="url(#clipPath2103)"
       inkscape:export-filename="path2102.svg"
       inkscape:export-xdpi="96"
       inkscape:export-ydpi="96" />
  </g>
</svg>
