<?xml version="1.0" encoding="UTF-8" standalone="no"?>
<!-- Created with Inkscape (http://www.inkscape.org/) -->

<svg
   width="11.212704mm"
   height="18.099865mm"
   viewBox="0 0 11.212704 18.099865"
   version="1.1"
   id="svg1"
   xmlns:inkscape="http://www.inkscape.org/namespaces/inkscape"
   xmlns:sodipodi="http://sodipodi.sourceforge.net/DTD/sodipodi-0.dtd"
   xmlns="http://www.w3.org/2000/svg"
   xmlns:svg="http://www.w3.org/2000/svg">
  <sodipodi:namedview
     id="namedview1"
     pagecolor="#ffffff"
     bordercolor="#111111"
     borderopacity="1"
     inkscape:showpageshadow="0"
     inkscape:pageopacity="0"
     inkscape:pagecheckerboard="1"
     inkscape:deskcolor="#d1d1d1"
     inkscape:document-units="mm"
     inkscape:export-bgcolor="#ffffff00">
    <inkscape:page
       x="0"
       y="0"
       width="11.212704"
       height="18.099865"
       id="page2"
       margin="0"
       bleed="0" />
  </sodipodi:namedview>
  <defs
     id="defs1">
    <clipPath
       clipPathUnits="userSpaceOnUse"
       id="clipPath2174">
      <path
         d="M 0,595.276 H 595.276 V 0 H 0 Z"
         transform="translate(-354.12356,-344.33481)"
         id="path2174" />
    </clipPath>
    <clipPath
       clipPathUnits="userSpaceOnUse"
       id="clipPath2176">
      <path
         d="M 0,595.276 H 595.276 V 0 H 0 Z"
         transform="translate(-358.77581,-304.80801)"
         id="path2176" />
    </clipPath>
    <clipPath
       clipPathUnits="userSpaceOnUse"
       id="clipPath2178">
      <path
         d="M 0,595.276 H 595.276 V 0 H 0 Z"
         transform="translate(-359.84531,-301.20131)"
         id="path2178" />
    </clipPath>
    <clipPath
       clipPathUnits="userSpaceOnUse"
       id="clipPath2180">
      <path
         d="M 0,595.276 H 595.276 V 0 H 0 Z"
         transform="translate(-358.77881,-297.71381)"
         id="path2180" />
    </clipPath>
    <clipPath
       clipPathUnits="userSpaceOnUse"
       id="clipPath2182">
      <path
         d="M 0,595.276 H 595.276 V 0 H 0 Z"
         transform="translate(-357.62231,-347.27691)"
         id="path2182" />
    </clipPath>
    <clipPath
       clipPathUnits="userSpaceOnUse"
       id="clipPath2184">
      <path
         d="M 0,595.276 H 595.276 V 0 H 0 Z"
         transform="translate(-352.42406,-325.71041)"
         id="path2184" />
    </clipPath>
    <clipPath
       clipPathUnits="userSpaceOnUse"
       id="clipPath2186">
      <path
         d="M 0,595.276 H 595.276 V 0 H 0 Z"
         transform="translate(-357.56456,-331.79131)"
         id="path2186" />
    </clipPath>
    <clipPath
       clipPathUnits="userSpaceOnUse"
       id="clipPath2188">
      <path
         d="M 0,595.276 H 595.276 V 0 H 0 Z"
         transform="translate(-355.53281,-332.32741)"
         id="path2188" />
    </clipPath>
    <clipPath
       clipPathUnits="userSpaceOnUse"
       id="clipPath2190">
      <path
         d="M 0,595.276 H 595.276 V 0 H 0 Z"
         transform="translate(-356.25806,-319.13491)"
         id="path2190" />
    </clipPath>
    <clipPath
       clipPathUnits="userSpaceOnUse"
       id="clipPath2192">
      <path
         d="M 0,595.276 H 595.276 V 0 H 0 Z"
         transform="translate(-356.25506,-340.57471)"
         id="path2192" />
    </clipPath>
    <clipPath
       clipPathUnits="userSpaceOnUse"
       id="clipPath2194">
      <path
         d="M 0,595.276 H 595.276 V 0 H 0 Z"
         transform="translate(-364.15406,-335.30881)"
         id="path2194" />
    </clipPath>
    <clipPath
       clipPathUnits="userSpaceOnUse"
       id="clipPath2196">
      <path
         d="M 0,595.276 H 595.276 V 0 H 0 Z"
         transform="translate(-362.05631,-320.83341)"
         id="path2196" />
    </clipPath>
    <clipPath
       clipPathUnits="userSpaceOnUse"
       id="clipPath2198">
      <path
         d="M 0,595.276 H 595.276 V 0 H 0 Z"
         transform="translate(-347.60231,-335.28831)"
         id="path2198" />
    </clipPath>
    <clipPath
       clipPathUnits="userSpaceOnUse"
       id="clipPath2200">
      <path
         d="M 0,595.276 H 595.276 V 0 H 0 Z"
         transform="translate(-351.45281,-339.40681)"
         id="path2200" />
    </clipPath>
    <clipPath
       clipPathUnits="userSpaceOnUse"
       id="clipPath2202">
      <path
         d="M 0,595.276 H 595.276 V 0 H 0 Z"
         transform="translate(-360.95981,-339.02511)"
         id="path2202" />
    </clipPath>
    <clipPath
       clipPathUnits="userSpaceOnUse"
       id="clipPath2204">
      <path
         d="M 0,595.276 H 595.276 V 0 H 0 Z"
         transform="translate(-350.37431,-320.54051)"
         id="path2204" />
    </clipPath>
    <clipPath
       clipPathUnits="userSpaceOnUse"
       id="clipPath2206">
      <path
         d="M 0,595.276 H 595.276 V 0 H 0 Z"
         transform="translate(-367.58381,-330.50641)"
         id="path2206" />
    </clipPath>
    <clipPath
       clipPathUnits="userSpaceOnUse"
       id="clipPath2208">
      <path
         d="M 0,595.276 H 595.276 V 0 H 0 Z"
         transform="translate(-346.42556,-330.50851)"
         id="path2208" />
    </clipPath>
    <clipPath
       clipPathUnits="userSpaceOnUse"
       id="clipPath2210">
      <path
         d="M 0,595.276 H 595.276 V 0 H 0 Z"
         transform="translate(-365.83256,-324.63471)"
         id="path2210" />
    </clipPath>
    <clipPath
       clipPathUnits="userSpaceOnUse"
       id="clipPath2212">
      <path
         d="M 0,595.276 H 595.276 V 0 H 0 Z"
         transform="translate(-345.96656,-324.69541)"
         id="path2212" />
    </clipPath>
  </defs>
  <g
     inkscape:label="Layer 1"
     inkscape:groupmode="layer"
     id="layer1"
     transform="translate(-154.53127,-175.59252)">
    <path
       id="path2173"
       d="m 0,0 c -7.466,-0.977 -12.532,-7.907 -11.571,-15.196 0.969,-7.346 7.641,-12.538 14.832,-11.673 7.435,0.894 12.667,7.697 11.74,15.151 C 14.092,-4.401 7.44,0.973 0,0 m 0.153,2.542 c 8.843,0.896 16.557,-5.708 17.388,-14.405 0.845,-8.85 -5.572,-16.681 -14.314,-17.538 -8.62,-0.845 -16.387,5.546 -17.304,14.242 -0.929,8.798 5.329,16.799 14.23,17.701"
       style="fill:#ffffff;fill-opacity:1;fill-rule:nonzero;stroke:none"
       transform="matrix(0.35277776,0,0,-0.35277776,159.52955,177.24554)"
       clip-path="url(#clipPath2174)" />
    <path
       id="path2175"
       d="M 0,0 -5.853,-0.009 -5.856,9.936 C -3.817,9.611 -2.043,9.607 -0.007,9.932 Z"
       style="fill:#ffffff;fill-opacity:1;fill-rule:nonzero;stroke:none"
       transform="matrix(0.35277776,0,0,-0.35277776,161.17076,191.18972)"
       clip-path="url(#clipPath2176)" />
    <path
       id="path2177"
       d="M 0,0 -8.014,-0.005 -8.026,3.196 0.006,3.197 Z"
       style="fill:#ffffff;fill-opacity:1;fill-rule:nonzero;stroke:none"
       transform="matrix(0.35277776,0,0,-0.35277776,161.54805,192.46208)"
       clip-path="url(#clipPath2178)" />
    <path
       id="path2179"
       d="m 0,0 -5.871,0.004 0.042,3.148 5.809,-0.01 z"
       style="fill:#ffffff;fill-opacity:1;fill-rule:nonzero;stroke:none"
       transform="matrix(0.35277776,0,0,-0.35277776,161.17182,193.69239)"
       clip-path="url(#clipPath2180)" />
    <path
       id="path2181"
       d="m 0,0 -3.547,-0.002 c -0.024,1.01 0.826,1.707 1.699,1.744 C -0.856,1.784 -0.028,0.999 0,0"
       style="fill:#ffffff;fill-opacity:1;fill-rule:nonzero;stroke:none"
       transform="matrix(0.35277776,0,0,-0.35277776,160.76383,176.20763)"
       clip-path="url(#clipPath2182)" />
    <path
       id="path2183"
       d="M 0,0 -1.605,1.553 1.617,4.541 C 1.966,4.059 2.258,3.772 2.832,3.366 Z"
       style="fill:#ffffff;fill-opacity:1;fill-rule:nonzero;stroke:none"
       transform="matrix(0.35277776,0,0,-0.35277776,158.93,183.81581)"
       clip-path="url(#clipPath2184)" />
    <path
       id="path2185"
       d="M 0,0 -0.942,0.868 6.278,7.544 3.871,4.601 Z"
       style="fill:#ffffff;fill-opacity:1;fill-rule:nonzero;stroke:none"
       transform="matrix(0.35277776,0,0,-0.35277776,160.74346,181.67061)"
       clip-path="url(#clipPath2186)" />
    <path
       id="path2187"
       d="M 0,0 C 0.831,0.202 1.552,-0.409 1.684,-1.01 1.878,-1.89 1.407,-2.634 0.681,-2.806 -0.107,-2.993 -0.823,-2.586 -1.038,-1.878 -1.272,-1.106 -0.925,-0.225 0,0"
       style="fill:#ffffff;fill-opacity:1;fill-rule:nonzero;stroke:none"
       transform="matrix(0.35277776,0,0,-0.35277776,160.0267,181.48148)"
       clip-path="url(#clipPath2188)" />
    <path
       id="path2189"
       d="m 0,0 c 0.002,-0.159 -0.219,-0.485 -0.354,-0.516 -0.162,-0.036 -0.47,0.29 -0.469,0.468 l 0.021,2.298 c 0.001,0.139 0.218,0.379 0.324,0.424 0.131,0.055 0.454,-0.241 0.456,-0.405 z"
       style="fill:#ffffff;fill-opacity:1;fill-rule:nonzero;stroke:none"
       transform="matrix(0.35277776,0,0,-0.35277776,160.28255,186.1355)"
       clip-path="url(#clipPath2190)" />
    <path
       id="path2191"
       d="m 0,0 c 0.001,-0.168 -0.212,-0.474 -0.338,-0.507 -0.158,-0.042 -0.479,0.265 -0.478,0.435 l 0.009,2.228 c 0.001,0.155 0.207,0.423 0.329,0.458 0.153,0.044 0.466,-0.256 0.467,-0.436 z"
       style="fill:#ffffff;fill-opacity:1;fill-rule:nonzero;stroke:none"
       transform="matrix(0.35277776,0,0,-0.35277776,160.28149,178.57202)"
       clip-path="url(#clipPath2192)" />
    <path
       id="path2193"
       d="m 0,0 c -0.112,-0.064 -0.497,0.072 -0.508,0.192 -0.013,0.152 0.121,0.506 0.28,0.598 L 1.57,1.829 C 1.717,1.914 2.03,1.916 2.146,1.819 2.262,1.722 2.172,1.249 2.037,1.171 Z"
       style="fill:#ffffff;fill-opacity:1;fill-rule:nonzero;stroke:none"
       transform="matrix(0.35277776,0,0,-0.35277776,163.06809,180.42971)"
       clip-path="url(#clipPath2194)" />
    <path
       id="path2195"
       d="m 0,0 c 0.07,-0.123 -0.004,-0.484 -0.099,-0.552 -0.118,-0.086 -0.503,-0.003 -0.58,0.132 l -1.132,1.988 c -0.071,0.126 0.021,0.495 0.1,0.604 0.078,0.108 0.485,-0.015 0.562,-0.151 z"
       style="fill:#ffffff;fill-opacity:1;fill-rule:nonzero;stroke:none"
       transform="matrix(0.35277776,0,0,-0.35277776,162.32805,185.53631)"
       clip-path="url(#clipPath2196)" />
    <path
       id="path2197"
       d="m 0,0 -2.176,1.238 c -0.112,0.064 -0.148,0.552 -0.041,0.615 0.107,0.064 0.375,0.105 0.495,0.036 L 0.129,0.823 C 0.255,0.751 0.41,0.468 0.472,0.364 0.534,0.26 0.133,-0.076 0,0"
       style="fill:#ffffff;fill-opacity:1;fill-rule:nonzero;stroke:none"
       transform="matrix(0.35277776,0,0,-0.35277776,157.229,180.43694)"
       clip-path="url(#clipPath2198)" />
    <path
       id="path2199"
       d="m 0,0 c 0.064,-0.11 -0.031,-0.545 -0.137,-0.586 -0.132,-0.051 -0.473,0.035 -0.552,0.173 l -1.133,1.986 c -0.066,0.115 -0.015,0.479 0.09,0.55 0.105,0.07 0.491,0.017 0.561,-0.104 z"
       style="fill:#ffffff;fill-opacity:1;fill-rule:nonzero;stroke:none"
       transform="matrix(0.35277776,0,0,-0.35277776,158.58737,178.98403)"
       clip-path="url(#clipPath2200)" />
    <path
       id="path2201"
       d="M 0,0 C -0.181,-0.128 -0.331,-0.219 -0.437,-0.257 -0.571,-0.305 -0.819,0.211 -0.741,0.348 L 0.441,2.414 C 0.505,2.527 0.925,2.596 1.011,2.502 1.097,2.408 1.149,2.083 1.076,1.951 Z"
       style="fill:#ffffff;fill-opacity:1;fill-rule:nonzero;stroke:none"
       transform="matrix(0.35277776,0,0,-0.35277776,161.94123,179.11868)"
       clip-path="url(#clipPath2202)" />
    <path
       id="path2203"
       d="m 0,0 c -0.093,-0.163 -0.405,-0.318 -0.543,-0.297 -0.138,0.02 -0.294,0.439 -0.218,0.57 L 0.421,2.326 C 0.49,2.446 0.891,2.569 0.972,2.464 1.054,2.358 1.139,1.989 1.068,1.865 Z"
       style="fill:#ffffff;fill-opacity:1;fill-rule:nonzero;stroke:none"
       transform="matrix(0.35277776,0,0,-0.35277776,158.2069,185.63964)"
       clip-path="url(#clipPath2204)" />
    <path
       id="path2205"
       d="m 0,0 -2.162,0.001 c -0.159,0 -0.416,0.149 -0.503,0.239 -0.085,0.089 0.1,0.513 0.222,0.515 l 2.31,0.034 C 0.037,0.792 0.307,0.661 0.381,0.552 0.473,0.417 0.187,0 0,0"
       style="fill:#ffffff;fill-opacity:1;fill-rule:nonzero;stroke:none"
       transform="matrix(0.35277776,0,0,-0.35277776,164.27803,182.12389)"
       clip-path="url(#clipPath2206)" />
    <path
       id="path2207"
       d="m 0,0 -2.321,-0.005 c -0.134,0 -0.401,0.277 -0.407,0.408 -0.006,0.164 0.33,0.384 0.503,0.383 L -0.133,0.774 C 0.018,0.773 0.283,0.637 0.356,0.535 0.447,0.409 0.164,0 0,0"
       style="fill:#ffffff;fill-opacity:1;fill-rule:nonzero;stroke:none"
       transform="matrix(0.35277776,0,0,-0.35277776,156.81387,182.12315)"
       clip-path="url(#clipPath2208)" />
    <path
       id="path2209"
       d="M 0,0 -2.019,1.185 C -2.142,1.257 -2.225,1.724 -2.11,1.788 -1.995,1.852 -1.68,1.9 -1.562,1.831 L 0.348,0.716 C 0.445,0.659 0.546,0.315 0.566,0.212 0.594,0.075 0.139,-0.082 0,0"
       style="fill:#ffffff;fill-opacity:1;fill-rule:nonzero;stroke:none"
       transform="matrix(0.35277776,0,0,-0.35277776,163.66022,184.1953)"
       clip-path="url(#clipPath2210)" />
    <path
       id="path2211"
       d="m 0,0 c -0.173,-0.102 -0.534,-0.085 -0.617,0.028 -0.082,0.114 0.009,0.537 0.139,0.613 L 1.44,1.764 C 1.571,1.84 1.885,1.792 1.999,1.729 2.113,1.666 2.038,1.198 1.907,1.121 Z"
       style="fill:#ffffff;fill-opacity:1;fill-rule:nonzero;stroke:none"
       transform="matrix(0.35277776,0,0,-0.35277776,156.65194,184.17388)"
       clip-path="url(#clipPath2212)" />
  </g>
</svg>
