<?xml version="1.0" encoding="UTF-8" standalone="no"?>
<!-- Created with Inkscape (http://www.inkscape.org/) -->

<svg
   width="9.0789919mm"
   height="13.894873mm"
   viewBox="0 0 9.0789919 13.894873"
   version="1.1"
   id="svg1"
   xmlns:inkscape="http://www.inkscape.org/namespaces/inkscape"
   xmlns:sodipodi="http://sodipodi.sourceforge.net/DTD/sodipodi-0.dtd"
   xmlns="http://www.w3.org/2000/svg"
   xmlns:svg="http://www.w3.org/2000/svg">
  <sodipodi:namedview
     id="namedview1"
     pagecolor="#ffffff"
     bordercolor="#111111"
     borderopacity="1"
     inkscape:showpageshadow="0"
     inkscape:pageopacity="0"
     inkscape:pagecheckerboard="1"
     inkscape:deskcolor="#d1d1d1"
     inkscape:document-units="mm"
     inkscape:export-bgcolor="#ffffff00">
    <inkscape:page
       x="0"
       y="0"
       width="9.0789919"
       height="13.894873"
       id="page2"
       margin="0"
       bleed="0" />
  </sodipodi:namedview>
  <defs
     id="defs1">
    <clipPath
       clipPathUnits="userSpaceOnUse"
       id="clipPath690-7">
      <path
         d="M 0,595.276 H 595.276 V 0 H 0 Z"
         transform="translate(-453.24656,-397.50411)"
         id="path690-1" />
    </clipPath>
  </defs>
  <g
     inkscape:label="Layer 1"
     inkscape:groupmode="layer"
     id="layer1"
     transform="translate(-119.55675,-142.24802)">
    <path
       id="path689-9"
       d="M 0,0 -3.574,2.878 -7.151,-0.009 Z M 2.476,0.44 1.049,6.573 -2.064,4.08 Z M -5.07,4.069 -8.17,6.57 -9.598,0.447 Z m 1.522,1.219 3.395,2.736 -3.41,2.742 -3.409,-2.74 z m 3.715,4.363 -0.786,3.476 -1.785,-1.436 z m -4.892,2.035 -1.787,1.435 -0.808,-3.514 z m 3.763,3.027 -0.25,0.917 -4.719,10e-4 -0.211,-0.955 2.589,-2.055 z m 1.305,2.734 6.161,0.016 -4.336,2.053 -2.09,-0.986 z m -7.524,1.242 -1.973,0.911 -2.124,-0.988 -2.369,-1.147 6.174,-0.014 z m 9.38,2.846 4.436,2.119 -6.729,0.023 0.029,-1.103 z m -9.24,1.076 -0.008,1.064 -6.352,-0.034 4.244,-2.013 z m 4.961,3.381 c 0.067,0.298 0.027,0.863 -0.014,1.162 l -1.469,1.178 -1.511,-1.211 0.019,-1.133 c 0.042,-0.166 0.413,-0.457 0.6,-0.463 0.645,-0.023 2.229,-0.189 2.375,0.467 m -0.014,2.389 -0.012,1.105 -0.701,-0.551 z m -2.191,0.562 -0.745,0.538 -0.002,-1.087 z m 10.082,2.663 -4.1,1.942 -1.944,-0.917 0.03,-1.041 z m -12.695,1.031 -1.94,0.914 -4.102,-1.944 6.031,-0.017 z m 3.34,0.31 1.394,0.675 -0.024,1.754 -1.385,0.648 -1.359,-0.633 -0.027,-1.792 z m 5.267,2.483 4.094,1.939 -6.107,0.015 0.026,-1.037 z m -8.511,0.958 -0.018,0.988 -6.094,-0.017 4.073,-1.934 z M 4.807,-1.788 -11.941,-1.791 -7.89,15.623 -18.153,15.634 c -0.43,0 -0.657,0.557 -0.671,0.839 -0.023,0.473 0.277,0.726 0.693,0.922 l 6.824,3.22 -6.896,3.264 c -0.317,0.15 -0.453,0.562 -0.421,0.87 0.034,0.33 0.272,0.639 0.643,0.763 h 10.983 l 0.065,4.369 -10.156,0.001 c -0.357,0.088 -0.613,0.382 -0.653,0.672 -0.057,0.408 0.125,0.736 0.496,0.912 l 6.399,3.024 -6.376,3.01 c -0.345,0.163 -0.55,0.45 -0.528,0.807 0.019,0.302 0.221,0.773 0.665,0.773 H 10.02 c 0.366,0 0.565,-0.469 0.596,-0.699 0.037,-0.278 -0.104,-0.676 -0.415,-0.823 L 3.698,34.487 10.113,31.46 c 0.346,-0.163 0.527,-0.458 0.508,-0.816 -0.02,-0.362 -0.264,-0.678 -0.675,-0.756 H -0.196 l 0.063,-4.374 11.328,-0.009 c 0.357,-10e-4 0.592,-0.436 0.644,-0.677 0.064,-0.297 -0.04,-0.769 -0.361,-0.921 l -7.15,-3.383 6.95,-3.287 c 0.296,-0.14 0.405,-0.546 0.385,-0.82 -0.017,-0.243 -0.245,-0.723 -0.579,-0.78 L 0.759,15.625 Z"
       style="fill:#231f20;fill-opacity:1;fill-rule:nonzero;stroke:none"
       transform="matrix(0.29590418,0,0,-0.33996913,125.12722,155.53399)"
       clip-path="url(#clipPath690-7)" />
  </g>
</svg>
