<?xml version="1.0" encoding="UTF-8" standalone="no"?>
<!-- Created with Inkscape (http://www.inkscape.org/) -->

<svg
   width="15.616891mm"
   height="16.087173mm"
   viewBox="0 0 15.616891 16.087173"
   version="1.1"
   id="svg1"
   xmlns:inkscape="http://www.inkscape.org/namespaces/inkscape"
   xmlns:sodipodi="http://sodipodi.sourceforge.net/DTD/sodipodi-0.dtd"
   xmlns="http://www.w3.org/2000/svg"
   xmlns:svg="http://www.w3.org/2000/svg">
  <sodipodi:namedview
     id="namedview1"
     pagecolor="#ffffff"
     bordercolor="#111111"
     borderopacity="1"
     inkscape:showpageshadow="0"
     inkscape:pageopacity="0"
     inkscape:pagecheckerboard="1"
     inkscape:deskcolor="#d1d1d1"
     inkscape:document-units="mm"
     inkscape:export-bgcolor="#ffffff00">
    <inkscape:page
       x="-4.2996295e-13"
       y="0"
       width="15.616892"
       height="16.087173"
       id="page2"
       margin="0"
       bleed="0" />
  </sodipodi:namedview>
  <defs
     id="defs1">
    <clipPath
       clipPathUnits="userSpaceOnUse"
       id="clipPath2214">
      <path
         d="M 0,595.276 H 595.276 V 0 H 0 Z"
         transform="translate(-106.05055,-311.26301)"
         id="path2214" />
    </clipPath>
    <clipPath
       clipPathUnits="userSpaceOnUse"
       id="clipPath2216">
      <path
         d="M 0,595.276 H 595.276 V 0 H 0 Z"
         transform="translate(-121.08955,-300.42301)"
         id="path2216" />
    </clipPath>
    <clipPath
       clipPathUnits="userSpaceOnUse"
       id="clipPath2218">
      <path
         d="M 0,595.276 H 595.276 V 0 H 0 Z"
         transform="translate(-139.2118,-320.21621)"
         id="path2218" />
    </clipPath>
    <clipPath
       clipPathUnits="userSpaceOnUse"
       id="clipPath2220">
      <path
         d="M 0,595.276 H 595.276 V 0 H 0 Z"
         transform="translate(-139.35655,-332.00211)"
         id="path2220" />
    </clipPath>
    <clipPath
       clipPathUnits="userSpaceOnUse"
       id="clipPath2222">
      <path
         d="M 0,595.276 H 595.276 V 0 H 0 Z"
         transform="translate(-139.3033,-314.33481)"
         id="path2222" />
    </clipPath>
    <clipPath
       clipPathUnits="userSpaceOnUse"
       id="clipPath2224">
      <path
         d="M 0,595.276 H 595.276 V 0 H 0 Z"
         transform="translate(-139.3048,-326.12251)"
         id="path2224" />
    </clipPath>
    <clipPath
       clipPathUnits="userSpaceOnUse"
       id="clipPath2226">
      <path
         d="M 0,595.276 H 595.276 V 0 H 0 Z"
         transform="translate(-137.2138,-317.30611)"
         id="path2226" />
    </clipPath>
    <clipPath
       clipPathUnits="userSpaceOnUse"
       id="clipPath2228">
      <path
         d="M 0,595.276 H 595.276 V 0 H 0 Z"
         transform="translate(-137.1253,-329.05781)"
         id="path2228" />
    </clipPath>
    <clipPath
       clipPathUnits="userSpaceOnUse"
       id="clipPath2230">
      <path
         d="M 0,595.276 H 595.276 V 0 H 0 Z"
         transform="translate(-137.1208,-323.17011)"
         id="path2230" />
    </clipPath>
    <clipPath
       clipPathUnits="userSpaceOnUse"
       id="clipPath2232">
      <path
         d="M 0,595.276 H 595.276 V 0 H 0 Z"
         transform="translate(-130.6228,-300.04281)"
         id="path2232" />
    </clipPath>
  </defs>
  <g
     inkscape:label="Layer 1"
     inkscape:groupmode="layer"
     id="layer1"
     transform="translate(-104.96214,-111.97028)">
    <path
       id="path2213"
       d="m 0,0 c -0.236,-0.154 -0.254,-0.289 -0.299,-0.51 l -1.463,-7.057 c -0.138,-0.668 -0.726,-1.001 -1.377,-0.842 -0.642,0.157 -1.144,0.712 -0.999,1.428 l 0.828,4.095 c 0.031,0.151 -0.068,0.269 -0.136,0.33 -0.092,0.083 -0.279,0.11 -0.397,0.033 l -3.241,-2.12 c -0.275,-0.18 -0.588,-0.296 -0.912,-0.211 -0.59,0.154 -0.943,0.696 -0.937,1.3 0.004,0.374 0.13,0.708 0.451,0.92 l 3.104,2.054 c 0.157,0.104 0.277,0.191 0.259,0.369 -0.016,0.156 -0.088,0.298 -0.282,0.34 l -4.302,0.922 c -0.513,0.11 -0.757,0.613 -0.728,1.084 0.027,0.437 0.216,0.788 0.506,1.014 0.351,0.273 0.726,0.287 1.167,0.196 L -1.629,1.87 6.898,7.467 C 7.025,7.55 7.089,7.64 7.097,7.756 7.104,7.856 7.051,8.016 6.911,8.103 l -8.555,5.362 -7.517,-1.715 c -0.648,-0.147 -1.192,0.296 -1.375,0.886 -0.235,0.591 0.039,1.303 0.701,1.458 l 4.335,1.019 c 0.196,0.045 0.31,0.144 0.322,0.313 0.011,0.174 -0.068,0.294 -0.235,0.397 l -2.733,1.692 c -0.683,0.423 -0.91,1.194 -0.446,1.876 0.314,0.461 0.935,0.72 1.457,0.396 l 2.927,-1.815 c 0.117,-0.073 0.292,-0.102 0.393,-0.032 0.086,0.059 0.225,0.196 0.187,0.366 l -0.879,3.858 c -0.09,0.392 -0.022,0.763 0.232,1.073 0.201,0.244 0.563,0.431 0.935,0.449 0.601,0.066 1.063,-0.262 1.198,-0.847 l 1.657,-7.193 8.287,-5.192 c 0.125,-0.078 0.283,-0.04 0.376,0.01 0.073,0.038 0.149,0.155 0.149,0.304 l 0.004,9.739 -5.294,5.28 c -0.329,0.328 -0.547,0.711 -0.462,1.162 0.109,0.421 0.364,0.76 0.701,0.918 0.364,0.171 0.913,0.217 1.212,-0.077 l 3.166,-3.132 c 0.145,-0.143 0.279,-0.217 0.463,-0.141 0.156,0.064 0.233,0.225 0.237,0.425 l 0.063,3.75 c 0.011,0.612 0.822,0.889 1.348,0.81 0.609,-0.091 1.025,-0.527 1.026,-1.133 l 0.003,-3.311 c 0,-0.174 0.078,-0.318 0.181,-0.362 0.157,-0.066 0.32,-0.061 0.443,0.061 l 2.679,2.673 c 0.269,0.267 0.544,0.49 0.89,0.502 0.363,0.012 0.724,-0.139 0.974,-0.392 0.513,-0.531 0.483,-1.241 -0.031,-1.754 l -5.131,-5.125 -0.004,-9.963 c 0,-0.176 0.113,-0.294 0.199,-0.343 0.169,-0.096 0.296,-0.013 0.443,0.083 l 3.766,2.449 c 0.147,0.096 0.266,0.164 0.415,0.108 0.153,-0.058 0.267,-0.195 0.265,-0.395 L 15.867,10.56 C 15.866,10.419 15.675,10.276 15.559,10.199 L 12.527,8.201 C 12.383,8.106 12.284,8.025 12.28,7.871 12.275,7.706 12.341,7.605 12.495,7.509 L 15.714,5.502 C 15.822,5.434 15.883,5.309 15.883,5.187 L 15.877,3.202 c 0,-0.155 -0.065,-0.28 -0.161,-0.338 -0.13,-0.077 -0.291,-0.093 -0.439,0 L 11.365,5.308 C 11.247,5.381 11.094,5.398 10.995,5.333 10.923,5.286 10.8,5.193 10.8,5.037 l -0.009,-9.244 c -0.001,-0.316 0.131,-0.404 0.325,-0.6 l 1.379,-1.396 c 0.167,-0.169 0.269,-0.353 0.212,-0.601 -0.324,-1.41 0.176,-2.212 -0.25,-2.44 -0.542,-0.291 -0.933,0.905 -1.401,0.726 -0.181,-0.07 -0.259,-0.199 -0.26,-0.407 l -0.012,-3.895 c -0.002,-0.64 -0.545,-1.038 -1.136,-1.071 -0.732,-0.041 -1.322,0.459 -1.322,1.198 l 0.004,3.769 c 0,0.158 -0.105,0.282 -0.195,0.317 -0.124,0.048 -0.286,0.036 -0.394,-0.072 l -2.98,-2.966 c -0.53,-0.527 -1.338,-0.404 -1.79,0.153 -0.427,0.526 -0.381,1.195 0.099,1.679 0.213,0.117 0.306,0.336 0.479,0.509 L 8.327,-4.532 8.328,4.77 C 8.328,4.945 8.221,5.05 8.076,5.11 7.852,5.204 7.494,4.89 7.136,4.657 Z"
       style="fill:#ffffff;fill-opacity:1;fill-rule:nonzero;stroke:none"
       transform="matrix(0.35277776,0,0,-0.35277776,108.70827,122.4063)"
       clip-path="url(#clipPath2214)" />
    <path
       id="path2215"
       d="m 0,0 c 0.935,-2.07 2.843,-3.433 5.033,-3.828 2.14,-0.386 4.291,0.289 5.789,1.866 1.457,1.536 2.126,3.592 1.781,5.741 C 12.304,5.64 11.178,7.404 9.458,8.437 9.272,8.549 9.152,8.715 9.152,8.969 L 9.126,36.797 C 9.125,37.716 8.482,38.55 7.73,38.883 6.709,39.333 5.593,39.291 4.59,38.928 3.819,38.648 3.359,38.038 3.145,37.273 2.942,36.545 3.002,35.868 3.002,35.087 L 3.005,8.89 C 3.005,8.619 2.724,8.41 2.563,8.297 L 1.616,7.631 C 0.917,7.139 0.433,6.387 0.07,5.585 -0.726,3.823 -0.817,1.808 0,0 M 13.282,-0.474 C 11.787,-3.691 8.469,-5.68 4.879,-5.069 2.964,-4.744 1.251,-3.779 -0.003,-2.303 -0.986,-1.147 -1.55,0.212 -1.728,1.723 -2.073,4.65 -0.792,7.466 1.589,9.174 1.711,9.262 1.793,9.366 1.793,9.555 L 1.79,35.351 c 0,0.706 -0.02,1.306 0.099,1.972 0.2,1.11 0.85,2.013 1.872,2.535 1.419,0.725 3.123,0.75 4.566,0.084 1.159,-0.535 1.866,-1.55 2.007,-2.795 0.092,-0.813 0.046,-1.55 0.046,-2.389 L 10.373,9.557 c 0,-0.187 0.059,-0.279 0.19,-0.374 3.021,-2.201 4.334,-6.182 2.719,-9.657"
       style="fill:#ffffff;fill-opacity:1;fill-rule:nonzero;stroke:none"
       transform="matrix(0.35277776,0,0,-0.35277776,114.01369,126.23041)"
       clip-path="url(#clipPath2216)" />
    <path
       id="path2217"
       d="m 0,0 -4.993,0.001 c -0.289,0 -0.424,0.281 -0.431,0.507 -0.006,0.206 0.115,0.524 0.402,0.524 L 0.125,1.031 C 0.378,1.031 0.489,0.685 0.488,0.51 0.487,0.279 0.307,0 0,0"
       style="fill:#ffffff;fill-opacity:1;fill-rule:nonzero;stroke:none"
       transform="matrix(0.35277776,0,0,-0.35277776,120.40682,119.24781)"
       clip-path="url(#clipPath2218)" />
    <path
       id="path2219"
       d="m 0,0 -5.099,-0.018 c -0.283,-0.001 -0.449,0.261 -0.464,0.469 -0.014,0.198 0.084,0.566 0.358,0.567 l 4.978,0.018 C 0.059,1.037 0.287,0.84 0.334,0.62 0.372,0.439 0.293,0.001 0,0"
       style="fill:#ffffff;fill-opacity:1;fill-rule:nonzero;stroke:none"
       transform="matrix(0.35277776,0,0,-0.35277776,120.45788,115.09001)"
       clip-path="url(#clipPath2220)" />
    <path
       id="path2221"
       d="m 0,0 -5.122,0.016 c -0.275,0.001 -0.383,0.282 -0.393,0.481 -0.01,0.207 0.112,0.535 0.4,0.535 L 0.032,1.033 C 0.273,1.033 0.384,0.712 0.395,0.556 0.413,0.318 0.288,0.098 0,0"
       style="fill:#ffffff;fill-opacity:1;fill-rule:nonzero;stroke:none"
       transform="matrix(0.35277776,0,0,-0.35277776,120.4391,121.32264)"
       clip-path="url(#clipPath2222)" />
    <path
       id="path2223"
       d="m 0,0 -5.122,-0.008 c -0.276,-10e-4 -0.39,0.307 -0.395,0.502 -0.005,0.209 0.131,0.521 0.417,0.521 L 0.016,1.016 C 0.257,1.016 0.371,0.718 0.389,0.557 0.41,0.374 0.303,0 0,0"
       style="fill:#ffffff;fill-opacity:1;fill-rule:nonzero;stroke:none"
       transform="matrix(0.35277776,0,0,-0.35277776,120.43963,117.1642)"
       clip-path="url(#clipPath2224)" />
    <path
       id="path2225"
       d="m 0,0 c -1.023,-0.066 -2.017,-0.02 -3.027,-0.02 -0.256,0 -0.387,0.284 -0.396,0.46 -0.012,0.213 0.088,0.546 0.367,0.556 C -2.046,1.03 -1.047,1.022 -0.036,1 0.195,0.995 0.304,0.709 0.323,0.562 0.343,0.398 0.269,0.017 0,0"
       style="fill:#ffffff;fill-opacity:1;fill-rule:nonzero;stroke:none"
       transform="matrix(0.35277776,0,0,-0.35277776,119.70197,120.27443)"
       clip-path="url(#clipPath2226)" />
    <path
       id="path2227"
       d="m 0,0 c -1.014,-0.032 -1.969,-0.029 -2.94,0 -0.27,0.009 -0.387,0.284 -0.396,0.476 -0.012,0.222 0.11,0.533 0.398,0.533 L 0.029,1.01 C 0.285,1.01 0.404,0.72 0.415,0.538 0.427,0.326 0.309,0.01 0,0"
       style="fill:#ffffff;fill-opacity:1;fill-rule:nonzero;stroke:none"
       transform="matrix(0.35277776,0,0,-0.35277776,119.67075,116.12869)"
       clip-path="url(#clipPath2228)" />
    <path
       id="path2229"
       d="M 0,0 -2.873,-0.009 C -3.207,-0.011 -3.341,0.29 -3.334,0.535 -3.324,0.87 -3.095,1.04 -2.742,1.04 L -0.093,1.036 C 0.198,1.035 0.383,0.838 0.415,0.592 0.444,0.366 0.337,0.001 0,0"
       style="fill:#ffffff;fill-opacity:1;fill-rule:nonzero;stroke:none"
       transform="matrix(0.35277776,0,0,-0.35277776,119.66916,118.20574)"
       clip-path="url(#clipPath2230)" />
    <path
       id="path2231"
       d="m 0,0 c -1.754,-2.092 -4.661,-2.059 -6.697,-0.459 -0.885,1.1 -1.41,2.493 -1.221,3.913 0.24,1.814 1.518,3.243 3.238,3.748 0.289,0.085 0.424,0.22 0.424,0.544 v 15.535 c 0,0.125 0.055,0.286 0.146,0.304 0.34,0.066 1.299,0.199 1.299,-0.364 V 7.615 c 0,-0.14 0.11,-0.306 0.218,-0.33 C -0.08,6.745 1.408,4.452 0.958,1.983 0.823,1.246 0.497,0.592 0,0"
       style="fill:#ffffff;fill-opacity:1;fill-rule:nonzero;stroke:none"
       transform="matrix(0.35277776,0,0,-0.35277776,117.37681,126.36454)"
       clip-path="url(#clipPath2232)" />
  </g>
</svg>
