<?xml version="1.0" encoding="UTF-8" standalone="no"?>
<!-- Created with Inkscape (http://www.inkscape.org/) -->

<svg
   width="5.5547481mm"
   height="13.194721mm"
   viewBox="0 0 5.5547481 13.194721"
   version="1.1"
   id="svg1"
   xmlns:inkscape="http://www.inkscape.org/namespaces/inkscape"
   xmlns:sodipodi="http://sodipodi.sourceforge.net/DTD/sodipodi-0.dtd"
   xmlns="http://www.w3.org/2000/svg"
   xmlns:svg="http://www.w3.org/2000/svg">
  <sodipodi:namedview
     id="namedview1"
     pagecolor="#ffffff"
     bordercolor="#111111"
     borderopacity="1"
     inkscape:showpageshadow="0"
     inkscape:pageopacity="0"
     inkscape:pagecheckerboard="1"
     inkscape:deskcolor="#d1d1d1"
     inkscape:document-units="mm"
     inkscape:export-bgcolor="#ffffff00">
    <inkscape:page
       x="0"
       y="0"
       width="5.5547481"
       height="13.194721"
       id="page2"
       margin="0"
       bleed="0" />
  </sodipodi:namedview>
  <defs
     id="defs1">
    <clipPath
       clipPathUnits="userSpaceOnUse"
       id="clipPath2077">
      <path
         d="M 0,595.276 H 595.276 V 0 H 0 Z"
         transform="translate(-222.65611,-197.6641)"
         id="path2077" />
    </clipPath>
    <clipPath
       clipPathUnits="userSpaceOnUse"
       id="clipPath2079">
      <path
         d="M 0,595.276 H 595.276 V 0 H 0 Z"
         transform="translate(-226.70536,-201.82981)"
         id="path2079" />
    </clipPath>
    <clipPath
       clipPathUnits="userSpaceOnUse"
       id="clipPath2081">
      <path
         d="M 0,595.276 H 595.276 V 0 H 0 Z"
         transform="translate(-226.71136,-210.8585)"
         id="path2081" />
    </clipPath>
    <clipPath
       clipPathUnits="userSpaceOnUse"
       id="clipPath2083">
      <path
         d="M 0,595.276 H 595.276 V 0 H 0 Z"
         transform="translate(-226.70536,-213.84061)"
         id="path2083" />
    </clipPath>
    <clipPath
       clipPathUnits="userSpaceOnUse"
       id="clipPath2085">
      <path
         d="M 0,595.276 H 595.276 V 0 H 0 Z"
         transform="translate(-226.71061,-207.82661)"
         id="path2085" />
    </clipPath>
    <clipPath
       clipPathUnits="userSpaceOnUse"
       id="clipPath2087">
      <path
         d="M 0,595.276 H 595.276 V 0 H 0 Z"
         transform="translate(-226.72186,-204.83321)"
         id="path2087" />
    </clipPath>
    <clipPath
       clipPathUnits="userSpaceOnUse"
       id="clipPath2089">
      <path
         d="M 0,595.276 H 595.276 V 0 H 0 Z"
         transform="translate(-220.71811,-196.5352)"
         id="path2089" />
    </clipPath>
  </defs>
  <g
     inkscape:label="Layer 1"
     inkscape:groupmode="layer"
     id="layer1"
     transform="translate(-143.13944,-142.61042)">
    <path
       id="path2076"
       d="m 0,0 -0.012,19.259 c -10e-4,2.169 -1.876,3.777 -3.878,3.773 -2.032,-0.004 -3.874,-1.634 -3.876,-3.803 l -0.011,-19.23 c -3.35,-2.444 -3.815,-7.108 -1.068,-10.101 2.695,-2.935 7.342,-2.897 9.991,0.084 C 3.8,-7.031 3.333,-2.431 0,0 m 1.041,0.542 c 3.486,-2.951 3.825,-8.034 0.835,-11.32 -3.059,-3.362 -8.331,-3.402 -11.448,-0.085 -3.061,3.257 -2.772,8.457 0.76,11.381 l 0.034,18.941 c 0.005,2.675 2.434,4.619 4.889,4.618 2.585,-0.001 4.914,-2.036 4.916,-4.777 z"
       style="fill:#ffffff;fill-opacity:1;fill-rule:nonzero;stroke:none"
       transform="matrix(0.35277776,0,0,-0.35277776,147.25988,151.10425)"
       clip-path="url(#clipPath2077)" />
    <path
       id="path2078"
       d="m 0,0 -1.874,-0.034 -0.008,1.038 1.851,0.009 z"
       style="fill:#ffffff;fill-opacity:1;fill-rule:nonzero;stroke:none"
       transform="matrix(0.35277776,0,0,-0.35277776,148.68836,149.63468)"
       clip-path="url(#clipPath2079)" />
    <path
       id="path2080"
       d="m 0,0 -1.882,-0.021 10e-4,1.03 1.836,0.005 z"
       style="fill:#ffffff;fill-opacity:1;fill-rule:nonzero;stroke:none"
       transform="matrix(0.35277776,0,0,-0.35277776,148.69048,146.44956)"
       clip-path="url(#clipPath2081)" />
    <path
       id="path2082"
       d="m 0,0 -1.774,0.006 c -0.11,0.172 -0.139,0.715 -0.087,1.022 l 1.853,0.027 z"
       style="fill:#ffffff;fill-opacity:1;fill-rule:nonzero;stroke:none"
       transform="matrix(0.35277776,0,0,-0.35277776,148.68836,145.39754)"
       clip-path="url(#clipPath2083)" />
    <path
       id="path2084"
       d="m 0,0 -1.779,0.012 c -0.113,0.176 -0.136,0.73 -0.09,1.018 l 1.852,0.022 z"
       style="fill:#ffffff;fill-opacity:1;fill-rule:nonzero;stroke:none"
       transform="matrix(0.35277776,0,0,-0.35277776,148.69022,147.51914)"
       clip-path="url(#clipPath2085)" />
    <path
       id="path2086"
       d="m 0,0 -1.817,-0.038 -0.106,1.051 1.88,0.013 z"
       style="fill:#ffffff;fill-opacity:1;fill-rule:nonzero;stroke:none"
       transform="matrix(0.35277776,0,0,-0.35277776,148.69418,148.57515)"
       clip-path="url(#clipPath2087)" />
    <path
       id="path2088"
       d="M 0,0 C 2.148,-1.006 3.228,-3.207 2.74,-5.457 2.27,-7.621 0.31,-9.21 -1.95,-9.206 c -2.211,0.003 -4.154,1.52 -4.664,3.647 -0.541,2.26 0.518,4.54 2.71,5.546 l 0.022,3.413 3.858,0.019 z"
       style="fill:#ffffff;fill-opacity:1;fill-rule:nonzero;stroke:none"
       transform="matrix(0.35277776,0,0,-0.35277776,146.57619,151.5025)"
       clip-path="url(#clipPath2089)"
       inkscape:export-filename="path2088.svg"
       inkscape:export-xdpi="96"
       inkscape:export-ydpi="96" />
  </g>
</svg>
