<?xml version="1.0" encoding="UTF-8" standalone="no"?>
<!-- Created with Inkscape (http://www.inkscape.org/) -->

<svg
   width="64.900604mm"
   height="17.42581mm"
   viewBox="0 0 64.900604 17.42581"
   version="1.1"
   id="svg1"
   xmlns:inkscape="http://www.inkscape.org/namespaces/inkscape"
   xmlns:sodipodi="http://sodipodi.sourceforge.net/DTD/sodipodi-0.dtd"
   xmlns="http://www.w3.org/2000/svg"
   xmlns:svg="http://www.w3.org/2000/svg">
  <sodipodi:namedview
     id="namedview1"
     pagecolor="#ffffff"
     bordercolor="#111111"
     borderopacity="1"
     inkscape:showpageshadow="0"
     inkscape:pageopacity="0"
     inkscape:pagecheckerboard="1"
     inkscape:deskcolor="#d1d1d1"
     inkscape:document-units="mm"
     inkscape:export-bgcolor="#ffffff00">
    <inkscape:page
       x="0"
       y="0"
       width="64.900604"
       height="17.42581"
       id="page2"
       margin="0"
       bleed="0" />
  </sodipodi:namedview>
  <defs
     id="defs1">
    <clipPath
       clipPathUnits="userSpaceOnUse"
       id="clipPath2449">
      <path
         d="M 0,595.276 H 595.276 V 0 H 0 Z"
         transform="translate(-128.94265,-259.43731)"
         id="path2449" />
    </clipPath>
    <clipPath
       clipPathUnits="userSpaceOnUse"
       id="clipPath2451">
      <path
         d="M 0,595.276 H 595.276 V 0 H 0 Z"
         transform="translate(-214.39616,-262.26661)"
         id="path2451" />
    </clipPath>
    <clipPath
       clipPathUnits="userSpaceOnUse"
       id="clipPath2453">
      <path
         d="M 0,595.276 H 595.276 V 0 H 0 Z"
         transform="translate(-253.18091,-234.87761)"
         id="path2453" />
    </clipPath>
    <clipPath
       clipPathUnits="userSpaceOnUse"
       id="clipPath2455">
      <path
         d="M 0,595.276 H 595.276 V 0 H 0 Z"
         transform="translate(3.5e-4)"
         id="path2455" />
    </clipPath>
    <clipPath
       clipPathUnits="userSpaceOnUse"
       id="clipPath2457">
      <path
         d="M 0,595.276 H 595.276 V 0 H 0 Z"
         transform="translate(3.5e-4)"
         id="path2457" />
    </clipPath>
    <clipPath
       clipPathUnits="userSpaceOnUse"
       id="clipPath2459">
      <path
         d="M 0,595.276 H 595.276 V 0 H 0 Z"
         transform="translate(-224.37866,-265.03481)"
         id="path2459" />
    </clipPath>
    <clipPath
       clipPathUnits="userSpaceOnUse"
       id="clipPath2461">
      <path
         d="M 0,595.276 H 595.276 V 0 H 0 Z"
         transform="translate(-155.4829,-247.59611)"
         id="path2461" />
    </clipPath>
    <clipPath
       clipPathUnits="userSpaceOnUse"
       id="clipPath2463">
      <path
         d="M 0,595.276 H 595.276 V 0 H 0 Z"
         transform="translate(-77.957652,-224.6042)"
         id="path2463" />
    </clipPath>
    <clipPath
       clipPathUnits="userSpaceOnUse"
       id="clipPath2465">
      <path
         d="M 0,595.276 H 595.276 V 0 H 0 Z"
         transform="translate(-112.38715,-224.6042)"
         id="path2465" />
    </clipPath>
    <clipPath
       clipPathUnits="userSpaceOnUse"
       id="clipPath2467">
      <path
         d="M 0,595.276 H 595.276 V 0 H 0 Z"
         transform="translate(-170.5009,-224.6042)"
         id="path2467" />
    </clipPath>
    <clipPath
       clipPathUnits="userSpaceOnUse"
       id="clipPath2469">
      <path
         d="M 0,595.276 H 595.276 V 0 H 0 Z"
         transform="translate(-204.93041,-224.6042)"
         id="path2469" />
    </clipPath>
    <clipPath
       clipPathUnits="userSpaceOnUse"
       id="clipPath2471">
      <path
         d="M 0,595.276 H 595.276 V 0 H 0 Z"
         transform="translate(3.5e-4)"
         id="path2471" />
    </clipPath>
    <clipPath
       clipPathUnits="userSpaceOnUse"
       id="clipPath2473">
      <path
         d="M 0,595.276 H 595.276 V 0 H 0 Z"
         transform="translate(3.5e-4)"
         id="path2473" />
    </clipPath>
    <clipPath
       clipPathUnits="userSpaceOnUse"
       id="clipPath2475">
      <path
         d="M 0,595.276 H 595.276 V 0 H 0 Z"
         transform="translate(3.5e-4)"
         id="path2475" />
    </clipPath>
    <clipPath
       clipPathUnits="userSpaceOnUse"
       id="clipPath2477">
      <path
         d="M 0,595.276 H 595.276 V 0 H 0 Z"
         transform="translate(3.5e-4)"
         id="path2477" />
    </clipPath>
  </defs>
  <g
     inkscape:label="Layer 1"
     inkscape:groupmode="layer"
     id="layer1"
     transform="translate(-10.148525,-247.72921)">
    <path
       id="path2448"
       d="m 0,0 -58.913,-26.689 v 6.394 L 0,6.394 Z"
       style="fill:none;stroke:#ffffff;stroke-width:0.819;stroke-linecap:butt;stroke-linejoin:miter;stroke-miterlimit:10;stroke-dasharray:none;stroke-opacity:1"
       transform="matrix(0.35277776,0,0,-0.35277776,31.076183,252.72214)"
       clip-path="url(#clipPath2449)" />
    <path
       id="path2450"
       d="m 0,0 -58.913,-26.689 v 6.394 L 0,6.394 Z"
       style="fill:none;stroke:#ffffff;stroke-width:0.819;stroke-linecap:butt;stroke-linejoin:miter;stroke-miterlimit:10;stroke-dasharray:none;stroke-opacity:1"
       transform="matrix(0.35277776,0,0,-0.35277776,61.222283,251.72402)"
       clip-path="url(#clipPath2451)" />
    <path
       id="path2452"
       d="m 0,0 -10.888,6.394 v 6.395 L 0,6.394 Z"
       style="fill:none;stroke:#ffffff;stroke-width:0.819;stroke-linecap:butt;stroke-linejoin:miter;stroke-miterlimit:10;stroke-dasharray:none;stroke-opacity:1"
       transform="matrix(0.35277776,0,0,-0.35277776,74.904673,261.38626)"
       clip-path="url(#clipPath2453)" />
    <path
       id="path2454"
       d="m 155.483,228.482 h -28.85 v 19.114 h 28.85 z"
       style="fill:none;stroke:#ffffff;stroke-width:0.819;stroke-linecap:butt;stroke-linejoin:miter;stroke-miterlimit:10;stroke-dasharray:none;stroke-opacity:1"
       transform="matrix(0.35277776,0,0,-0.35277776,-14.41204,344.24585)"
       clip-path="url(#clipPath2455)" />
    <path
       id="path2456"
       d="M 242.292,236.166 H 214.82 v 14.08 h 27.472 z"
       style="fill:none;stroke:#ffffff;stroke-width:0.819;stroke-linecap:butt;stroke-linejoin:miter;stroke-miterlimit:10;stroke-dasharray:none;stroke-opacity:1"
       transform="matrix(0.35277776,0,0,-0.35277776,-14.41204,344.24585)"
       clip-path="url(#clipPath2457)" />
    <path
       id="path2458"
       d="M 0,0 -9.559,7.7 V -6.827 L 0,-14.526 H 16.28 V 0 Z"
       style="fill:none;stroke:#ffffff;stroke-width:0.819;stroke-linecap:butt;stroke-linejoin:miter;stroke-miterlimit:10;stroke-dasharray:none;stroke-opacity:1"
       transform="matrix(0.35277776,0,0,-0.35277776,64.743883,250.74747)"
       clip-path="url(#clipPath2459)" />
    <path
       id="path2460"
       d="m 0,0 h -28.85 l -1.925,7.076 h 34.22 z"
       style="fill:none;stroke:#ffffff;stroke-width:0.819;stroke-linecap:butt;stroke-linejoin:miter;stroke-miterlimit:10;stroke-dasharray:none;stroke-opacity:1"
       transform="matrix(0.35277776,0,0,-0.35277776,40.438993,256.89945)"
       clip-path="url(#clipPath2461)" />
    <path
       id="path2462"
       d="M 0,0 H -1.683 V 10.707 L 0,11.544 Z"
       style="fill:none;stroke:#ffffff;stroke-width:0.819;stroke-linecap:butt;stroke-linejoin:miter;stroke-miterlimit:10;stroke-dasharray:none;stroke-opacity:1"
       transform="matrix(0.35277776,0,0,-0.35277776,13.089813,265.01048)"
       clip-path="url(#clipPath2463)" />
    <path
       id="path2464"
       d="M 0,0 H -1.683 V 26.111 L 0,26.949 Z"
       style="fill:none;stroke:#ffffff;stroke-width:0.819;stroke-linecap:butt;stroke-linejoin:miter;stroke-miterlimit:10;stroke-dasharray:none;stroke-opacity:1"
       transform="matrix(0.35277776,0,0,-0.35277776,25.235773,265.01048)"
       clip-path="url(#clipPath2465)" />
    <path
       id="path2466"
       d="M 0,0 H -1.683 V 16.668 L 0,17.505 Z"
       style="fill:none;stroke:#ffffff;stroke-width:0.819;stroke-linecap:butt;stroke-linejoin:miter;stroke-miterlimit:10;stroke-dasharray:none;stroke-opacity:1"
       transform="matrix(0.35277776,0,0,-0.35277776,45.737013,265.01048)"
       clip-path="url(#clipPath2467)" />
    <path
       id="path2468"
       d="M 0,0 H -1.683 V 32.369 L 0,33.207 Z"
       style="fill:none;stroke:#ffffff;stroke-width:0.819;stroke-linecap:butt;stroke-linejoin:miter;stroke-miterlimit:10;stroke-dasharray:none;stroke-opacity:1"
       transform="matrix(0.35277776,0,0,-0.35277776,57.882973,265.01048)"
       clip-path="url(#clipPath2469)" />
    <path
       id="path2470"
       d="m 130.836,224.604 h -1.085 v 3.878 h 1.085 z"
       style="fill:none;stroke:#ffffff;stroke-width:0.819;stroke-linecap:butt;stroke-linejoin:miter;stroke-miterlimit:10;stroke-dasharray:none;stroke-opacity:1"
       transform="matrix(0.35277776,0,0,-0.35277776,-14.41204,344.24585)"
       clip-path="url(#clipPath2471)" />
    <path
       id="path2472"
       d="m 150.369,224.604 h -1.085 v 3.878 h 1.085 z"
       style="fill:none;stroke:#ffffff;stroke-width:0.819;stroke-linecap:butt;stroke-linejoin:miter;stroke-miterlimit:10;stroke-dasharray:none;stroke-opacity:1"
       transform="matrix(0.35277776,0,0,-0.35277776,-14.41204,344.24585)"
       clip-path="url(#clipPath2473)" />
    <path
       id="path2474"
       d="m 219.332,224.604 h -1.085 v 10.973 h 1.085 z"
       style="fill:none;stroke:#ffffff;stroke-width:0.819;stroke-linecap:butt;stroke-linejoin:miter;stroke-miterlimit:10;stroke-dasharray:none;stroke-opacity:1"
       transform="matrix(0.35277776,0,0,-0.35277776,-14.41204,344.24585)"
       clip-path="url(#clipPath2475)" />
    <path
       id="path2476"
       d="m 238.866,224.604 h -1.085 v 10.973 h 1.085 z"
       style="fill:none;stroke:#ffffff;stroke-width:0.819;stroke-linecap:butt;stroke-linejoin:miter;stroke-miterlimit:10;stroke-dasharray:none;stroke-opacity:1"
       transform="matrix(0.35277776,0,0,-0.35277776,-14.41204,344.24585)"
       clip-path="url(#clipPath2477)" />
  </g>
</svg>
